<svg width="32" height="32" viewBox="0 0 32 32" fill="none" xmlns="http://www.w3.org/2000/svg">
<circle cx="16" cy="16" r="16" fill="#BA9F33"/>
<mask id="mask0_4227_34070" style="mask-type:alpha" maskUnits="userSpaceOnUse" x="0" y="0" width="32" height="32">
<circle cx="16" cy="16" r="16" fill="#BA9F33"/>
</mask>
<g mask="url(#mask0_4227_34070)">
<path d="M12.1735 22.2653L11.666 21.3048L11.9612 20.1035L14.066 19.2906L13.1702 17.4524L13.6129 15.5961L14.444 13.9339L17.0123 13.5301L18.8997 11.7307L22.9748 12.0388L23.7748 16.3961L22.2343 21.8822L21.3566 24.7223L17.7993 24.8569L16.1476 23.7126L14.2136 22.9048L12.1735 22.2653Z" fill="#E2CC85"/>
<path d="M18.4131 22.2344C18.4131 22.2344 17.9212 22.4596 17.0824 22.4078C16.839 22.0816 15.138 21.9289 15.138 21.9289C15.138 21.9289 14.9257 21.8641 14.5503 22.0195C14.1723 22.1722 13.815 22.1541 13.4811 22.237C13.1471 22.3198 12.8157 21.8848 12.5594 21.7942C12.3031 21.6984 11.9639 21.468 11.9639 21.468L11.2468 21.3981L9.80728 20.7897L7.5212 18.5114L6.89984 19.4848L6.70825 20.6887L7.39951 22.1153L9.261 23.8111L12.8908 24.7327L15.0422 24.0984L17.7374 22.9593L18.4131 22.2344Z" fill="#F1D789"/>
<path d="M5.51713 14.1825L5.97797 12.7871L6.52684 11.8861L8.29513 11.7385L7.76438 13.2867L6.28606 15.9172L6.89966 18.2654L5.81228 18.8091L5.4783 18.2965L5.20904 17.1211L5.19092 15.8007L5.51713 14.1825Z" fill="#F4ECB4"/>
<path d="M7.50032 22.1385L7.16116 21.6647C7.16116 21.6647 7.07054 21.4395 7.12232 21.2427C7.1741 21.0434 7.16633 21.0304 7.14044 20.9554C7.11455 20.8803 6.89708 20.6214 6.91002 20.3987C6.92297 20.1735 6.8919 20.0984 7.0576 19.9198C7.23106 19.7463 7.17928 19.446 7.17928 19.446L7.40452 19.5858L7.4563 19.5081C7.4563 19.5081 7.53915 19.5728 7.53915 19.6738C7.55727 19.534 7.48219 18.8868 7.65307 18.7392C7.82653 18.5916 8.12685 19.4304 8.12685 19.4304L7.94044 18.2136L7.46148 16.9657L6.6097 15.8266L6.55792 14.5709V14.4622C6.55792 14.4622 6.16698 15.0628 6.05824 15.5366C5.98057 15.8628 6.16698 16.2589 6.12815 16.7275C6.09708 17.1935 6.05824 17.1573 6.17216 17.3411C6.28608 17.5249 6.5631 17.9055 6.45436 18.18C6.35857 18.4156 6.03235 18.2499 6.03235 18.2499C6.03235 18.2499 5.96763 18.4414 5.8796 18.5113C5.84854 18.3974 5.81488 18.3249 5.75274 18.255C5.74756 18.2991 5.73462 18.3586 5.73462 18.3586C5.73462 18.3586 5.67766 18.18 5.6207 17.9547C5.54303 17.6544 5.46019 17.2583 5.3851 17.046C5.35404 17.1677 5.27637 17.5379 5.27637 17.5379L5.32038 18.1075L5.53268 18.8893L5.73721 19.402L5.93656 20.0285L6.11002 20.4505L6.24983 20.7715L6.37151 21.4939L6.95921 22.1152L7.27248 22.255L7.50032 22.1385V22.1385Z" fill="#F3E19D"/>
<path d="M5.82535 13.0434C5.82535 13.0434 5.40334 13.7606 5.28166 14.4829C5.15998 15.2052 5.05124 15.969 5.12891 16.9528C5.20658 17.9444 5.35415 18.5528 5.47325 18.9877C5.67778 19.7101 6.20852 20.7146 6.20852 20.7146L6.22664 20.6758C6.22664 20.6758 6.08684 20.4195 6.01435 20.145C5.94444 19.8706 5.91855 19.5444 5.85383 19.3968C5.79687 19.2492 5.70108 19.1224 5.65448 18.9411C5.61046 18.7677 5.6027 18.4932 5.46807 18.2887C5.41111 18.2059 5.34121 17.9884 5.32049 17.7709C5.2946 17.4447 5.33344 17.0796 5.30237 16.7793C5.24541 16.2796 5.20658 15.9405 5.25836 15.679C5.31014 15.4175 5.57939 14.6745 5.74509 14.0842C5.85383 13.7062 5.7891 13.3877 5.98846 13.0589C6.18781 12.7327 6.30949 12.4453 6.3535 12.246C6.40528 12.0648 5.82535 13.0434 5.82535 13.0434V13.0434Z" fill="#F2E8B0"/>
<path d="M7.82672 12.756C7.82672 12.756 7.60924 12.8208 7.50569 12.9347C7.40213 13.0434 7.35811 13.134 7.21831 13.3179C7.0785 13.5043 7.07073 13.6518 6.95682 13.8823C6.8429 14.1075 6.59177 14.4467 6.5607 14.5683C6.52963 14.69 6.47785 15.2596 6.41313 15.5289C6.35617 15.7981 6.47785 16.1295 6.47785 16.1295L6.62543 16.0984C6.62543 16.0984 6.62543 16.29 6.773 16.4195C6.92057 16.5463 6.94646 15.9897 6.94646 15.9897L7.49792 14.1282L8.32899 13.5638L8.4196 13.1081L7.82672 12.756V12.756Z" fill="#F5EEC0"/>
<path d="M8.23042 13.6C8.23042 13.6 7.83948 13.6259 7.6479 13.7657C7.57023 13.8227 7.53916 13.8693 7.45631 13.9392C7.30356 14.066 7.14822 14.1825 7.07314 14.3482C6.99029 14.5139 6.89968 14.7651 6.83754 15.2388C6.81165 15.4382 6.81165 15.622 6.79353 15.7825C6.76764 16 6.7288 16.1735 6.74951 16.2951C6.7754 16.5437 7.03172 16.6731 7.05761 16.9553L7.58835 16.6861L8.08803 14.7159L9.14951 14.0505L8.54887 13.3773L8.23042 13.6V13.6Z" fill="#E6DB9D"/>
<path d="M8.875 32.0001H5.99871H4.5C4.5 32.0001 4.76634 30.2266 4.78447 30.0092C4.82848 29.8745 4.97605 29.4914 5.02007 29.4215C5.05113 29.3179 5.08997 29.0564 5.00194 28.7354C5.0589 28.6448 5.23754 28.5956 5.43689 26.8092C5.51456 26.1438 5.52751 25.6389 5.58447 25.3231C5.66732 24.8752 5.72427 24.7095 5.71133 24.5412C5.69321 24.2719 5.67249 24.0752 5.69838 23.8681C5.73722 23.5936 6.00647 23.2674 5.99871 23.0422C5.99353 22.8635 5.90291 22.747 5.82524 22.6383C5.74757 22.5295 5.68544 22.4389 5.68544 22.4389C5.68544 22.4389 6.21618 22.0739 6.211 20.6033C6.22913 20.6085 6.24207 20.6163 6.24207 20.6163L6.50356 21.3593L6.6822 21.5768L7.36829 22.8558L8.25113 23.7127L9.55599 24.5904L10.3741 25.481L10.457 27.8551L9.3877 29.2428L8.875 32.0001Z" fill="#E5CB7A"/>
<path d="M8.69653 29.1392C8.69653 29.1392 8.71466 28.844 8.95802 28.6525C8.99686 28.7172 9.02275 28.7793 9.01498 28.8259C9.05899 28.7483 9.36708 28.2512 10.0635 28.1217C10.76 27.9949 10.9282 27.4874 10.9282 27.4874L12.4066 26.1437L14.0972 24.5877L16.1528 23.8654L17.1134 23.6298C17.1134 23.6298 17.1315 23.6997 17.0952 23.855C17.2739 23.8421 17.67 23.7515 18.0816 23.6065C18.2473 23.5418 18.4027 23.5159 18.4855 23.6013C18.6072 23.7152 18.6253 23.9845 18.6331 24.145C18.8325 24.101 19.0629 23.9094 19.2467 23.9275C19.5418 23.9586 19.8033 24.3055 20.1037 24.3055C20.4998 24.3055 20.6784 24.0622 20.9554 23.8706C21.1211 23.7567 21.3593 23.6143 21.4939 23.5185C21.815 23.2829 25.2117 22.2447 25.2117 22.2447L26.4027 22.3224L26.5943 23.6013L26.4907 26.9618L21.0383 29.8097L12.4428 31.1275L8.94249 30.2317L8.69653 29.1392V29.1392Z" fill="#D8C173"/>
<path d="M5.06152 31.1949C5.06152 31.1949 5.37479 30.4855 5.52236 29.4602C5.64405 28.6214 5.53531 28.4298 5.56638 28.1606C5.61039 27.7567 6.06605 26.9696 6.10489 26.8169C6.13596 27.1301 6.22657 28.3133 6.55279 28.5774C6.48288 28.6809 6.36638 29.0382 6.78321 29.3127C6.7133 29.4602 6.57091 29.6389 6.66152 29.9081C6.75214 30.1774 6.86088 30.5606 6.8091 30.9826C6.66152 31.0136 6.50101 31.0784 6.37414 31.2C6.24728 31.3139 5.06152 31.1949 5.06152 31.1949Z" fill="#F1D789"/>
<path d="M10.4311 30.7003L12.3392 30.1696L12.422 30.1955C12.422 30.1955 12.466 30.2214 12.466 30.3094C12.5877 30.2395 12.6913 30.2524 12.7663 30.2058C12.8052 30.2887 12.844 30.5631 13.0149 30.5968C13.1935 30.6356 13.3851 30.5191 13.5793 30.3715C13.7709 30.2188 13.9883 30.0272 14.154 29.9495C14.1851 30.0013 14.2628 30.1618 14.3146 30.2939C14.532 30.1204 14.91 29.4162 15.4485 29.4291C15.5003 29.3075 15.6919 28.8647 16.1968 28.5256C16.6964 28.1864 17.0097 28.1605 17.4006 28.1916C17.5534 27.9923 17.7528 27.8136 17.965 27.6867C18.0298 27.7126 18.2084 27.8214 18.4311 27.7178C18.6563 27.6143 18.91 27.213 19.244 27.1612C19.5392 27.1172 19.7618 27.2699 19.7618 27.2699C19.7618 27.2699 20.7353 26.3042 21.4058 25.9832C21.3799 25.9055 21.3282 25.613 22.1152 24.9657C22.1592 25.0045 22.1282 25.1133 22.1592 25.1185C22.1722 25.1185 22.3638 25.0356 22.6071 24.8492C22.9074 24.624 23.2673 24.3884 23.4848 24.3236C23.8938 24.202 24.3288 24.4505 24.3288 24.4505C24.3288 24.4505 24.3806 24.4117 24.4505 24.3935C24.554 24.3754 24.6291 24.3625 24.6861 24.3418C24.6809 24.4764 24.756 24.7068 24.6861 24.9062C24.6861 24.9062 24.7948 24.9709 24.9424 25.0149C24.8984 25.1107 24.8026 25.3541 24.6421 25.4706C24.7767 25.5353 24.7948 25.6104 24.9864 25.6751C24.9087 25.7838 24.7819 25.9702 24.7249 26.0842C24.668 26.2058 24.4634 26.7107 24.3728 26.9023C24.277 27.0939 24.1476 27.446 24.0854 27.5159C24.0207 27.5858 23.7981 27.8861 23.6246 28.0337C23.7773 27.9767 24.4065 27.7851 24.6731 27.7126C24.5126 27.9482 23.0291 30.1515 23.0291 30.1515L20.0414 31.0421L18.5 32H8.75V31.625L10.4311 30.7003Z" fill="#E0CD81"/>
<path d="M8.29508 13.5301C8.29508 13.5301 8.06984 13.5301 8.02582 13.5612C7.98181 13.5923 8.25107 13.657 8.33391 13.6881C8.41676 13.7191 8.5954 13.8615 8.642 13.9754C8.68602 14.0842 10.2601 14.7185 10.2601 14.7185L11.3734 14.6615L11.7566 14.1308L11.0265 13.4913L11.5391 11.9819L10.8608 12.0906L9.22971 13.0641L8.41158 13.3774L8.29508 13.5301Z" fill="#DFC57C"/>
<path d="M10.7392 14.0298C10.7392 14.0298 10.7832 14.1126 10.8919 14.1126C11.1223 14.1126 11.3346 14.1696 11.4227 14.2861C11.5702 14.4725 11.9793 15.068 11.9793 15.068L12.9579 15.4201L13.0227 14.268L11.9534 13.5249L10.7366 13.9728V14.0298H10.7392Z" fill="#E5CC7C"/>
<path d="M10.5476 14.457C10.5476 14.457 10.7262 14.4699 10.9514 14.3871C11.1767 14.3042 11.5469 14.1256 11.7074 14.1955C11.9327 14.2913 11.8861 14.5916 12.1294 14.8608C12.277 15.0265 12.5463 15.0214 12.699 15.2C12.8518 15.3786 13.3773 15.2958 13.3773 15.2958L13.5767 16.3702L12.7767 17.3955L12.5152 18.6693H11.433L10.444 18.2783L9.95728 17.1003L10.2006 15.9094L10.5476 14.457V14.457Z" fill="#D2C281"/>
<path d="M12.6393 14.5088C12.6393 14.5088 12.6782 14.5218 12.7222 14.5218C12.6911 14.5476 12.6264 14.6046 12.6523 14.7522C12.6782 14.8997 12.761 15.0862 12.6911 15.2001C12.7222 15.2389 12.7688 15.2829 12.8128 15.4124C12.8568 15.5392 12.8697 15.6557 13.1571 15.6739C13.0924 15.7127 13.0432 15.7645 13.0432 15.7645C13.0432 15.7645 13.2426 15.9379 13.3435 16.0985C13.4471 16.0933 13.7215 16.0078 13.7215 16.0078L13.7785 16.0467L13.9002 15.9949C13.9002 15.9949 13.7862 15.9509 13.8691 15.6739C13.9468 15.4305 14.0167 15.4434 14.0218 15.4253C14.027 15.4072 14.0788 15.1509 14.0788 15.0473C14.1176 14.9127 14.1487 14.5036 14.1487 14.5036L14.0659 13.6001L13.5998 13.3179L13.2218 12.9528L12.8646 13.626L12.629 13.8616L12.6108 14.4441L12.6393 14.5088V14.5088Z" fill="#E2C270"/>
<path d="M13.7605 13.7528C13.7605 13.7528 13.8433 13.9884 13.8744 14.1696C13.8925 14.1127 13.8925 14.0609 13.8925 14.0609C13.8925 14.0609 13.9573 14.4182 13.9702 14.5657C13.9961 14.5606 14.022 14.5528 14.0272 14.5787C14.0323 14.6046 14.0919 14.8919 14.0789 15.0525C14.11 14.9955 14.2576 14.7703 14.5139 14.6175C14.6175 14.5528 14.7391 14.4829 14.866 14.4777C15.0654 14.4725 15.2103 14.6046 15.4485 14.6046C16.0233 14.6046 16.5437 14.1826 16.9268 14.0531C17.209 13.9573 17.4524 13.8874 17.6233 13.7321C17.7061 13.6622 17.8537 13.5068 17.9883 13.2764C18.167 12.9683 18.3534 12.7017 18.5398 12.668C18.3922 12.6939 18.2835 12.6861 18.2835 12.6861C18.2835 12.6861 18.3404 12.6292 18.4362 12.5515C18.532 12.4738 18.6485 12.378 18.8142 12.378C19.1094 12.378 19.2569 12.422 19.4226 12.422C19.5883 12.4169 19.6841 12.378 19.6841 12.378C19.6841 12.378 19.8576 12.4997 20.2485 12.4997C20.6395 12.5049 20.901 12.5385 21.1055 12.5567C21.31 12.5748 21.9961 12.4997 22.1929 12.5049C22.3974 12.5101 22.5631 12.5955 22.5631 12.5955L21.9288 10.7521L19.6505 8.7612L18.2938 9.72172L16.2071 11.8084L14.1877 12.5567L13.7657 13.0305V13.7528H13.7605Z" fill="#CCB360"/>
<path d="M18.2913 12.6965C18.2913 12.6965 18.3483 12.6395 18.4441 12.5618C18.5399 12.4842 18.6564 12.3884 18.8221 12.3884C19.1172 12.3884 19.2648 12.4324 19.4305 12.4324C19.5962 12.4272 19.692 12.3884 19.692 12.3884C19.692 12.3884 19.8654 12.5101 20.2564 12.5101C20.6473 12.5152 20.9088 12.5489 21.1133 12.567C21.3179 12.5851 22.0039 12.5101 22.2007 12.5152C22.4052 12.5204 22.5709 12.6059 22.5709 12.6059L22.2836 11.7748L21.9496 11.1405L20.9968 10.0971C20.9968 10.0971 19.8525 9.42397 19.8447 9.4188C19.8395 9.41362 19.4486 9.31006 19.4486 9.31006L18.413 9.9366L17.4732 12.3677L17.4551 12.8803L18.0635 13.1677C18.2162 12.9114 18.3845 12.7068 18.5425 12.6809C18.4001 12.6965 18.2913 12.6965 18.2913 12.6965V12.6965Z" fill="#D5B457"/>
<path d="M18.2785 12.8699C18.1879 12.8751 18.1128 12.8569 18.0921 12.7922C18.0144 12.5747 17.9523 12.5437 17.8876 12.5437C17.8228 12.5437 17.7348 12.6835 17.683 12.6964C17.6313 12.7094 17.5691 12.5359 17.5691 12.5359L17.5122 12.51C17.5122 12.51 17.1782 12.7275 16.9426 12.9838C16.707 13.2401 16.3212 13.6751 16.1478 13.7527C15.9743 13.8304 15.3788 13.8563 15.1743 13.9003C14.9698 13.9443 14.7445 14.0919 14.7135 14.1255C14.6824 14.1592 14.8041 14.1954 14.8222 14.2291C14.8403 14.2602 14.6228 14.2472 14.6047 14.2809C14.5918 14.3068 14.6565 14.4543 14.6876 14.5294C14.7445 14.5035 14.8015 14.4854 14.8662 14.4854C15.0656 14.4802 15.2105 14.6123 15.4487 14.6123C16.0235 14.6123 16.5439 14.1903 16.927 14.0608C17.2092 13.965 17.4526 13.8951 17.6235 13.7398C17.7063 13.6699 17.8539 13.5145 17.9885 13.2841C18.0869 13.1262 18.1827 12.9786 18.2785 12.8699V12.8699Z" fill="#D2B257"/>
<path d="M10.035 25.6829C10.035 25.6829 9.98319 25.4913 9.5094 24.9968C9.37477 24.857 9.29193 24.7405 9.20131 24.6577C8.97607 24.4454 8.84403 24.3884 8.68351 24.2667C8.33141 24.0052 7.94824 24.0052 7.65309 23.6842C7.35795 23.3632 7.01361 22.7496 6.77542 22.123C6.53982 21.4965 6.4751 21.2972 6.4751 21.279C6.4751 21.2609 6.53982 21.1392 6.62267 21.1574C6.70552 21.1755 6.70552 21.336 6.72623 21.3748C6.73141 21.3878 6.79096 21.4706 6.86604 21.5535C6.98772 21.6933 7.16118 21.8616 7.24921 22.1101C7.23108 21.8978 7.15859 21.6622 7.15859 21.6622C7.15859 21.6622 7.61426 21.9496 8.00261 22.2499C8.39354 22.5502 8.55406 22.6538 8.66798 22.8454C8.78189 23.037 9.05115 23.5418 9.1806 23.6894C9.31005 23.837 11.0757 24.3936 11.0757 24.3936L11.9146 25.0201L12.3314 25.9341L12.0052 26.4467L11.3787 26.5813L10.3612 26.1256L10.035 25.6829Z" fill="#D2B159"/>
<path d="M7.77489 22.5346C7.77489 22.5346 7.98718 22.8738 8.50498 23.1948C8.971 23.477 9.70887 23.7333 10.3665 23.8861C10.7445 23.9767 11.1225 24.0466 11.4616 24.0517C12.3755 24.0647 13.0047 23.8032 13.7839 23.7178C14.206 23.6738 14.7238 23.6401 15.2623 23.5132C15.9535 23.3475 16.3626 23.1611 16.9192 22.8996C17.3231 22.7132 17.6933 22.5734 17.9937 22.3948C18.4157 22.1462 18.7238 21.8692 19.081 21.7864C19.037 21.9081 18.9904 22.1255 18.6383 22.3508C18.8247 22.3456 19.081 22.3327 19.081 22.3327C19.081 22.3327 18.8325 22.4802 18.395 22.8116C18.1257 23.0161 17.7684 23.3631 17.4034 23.5935C17.1678 23.7411 16.9115 23.8498 16.7432 23.9378C16.3341 24.1631 16.1684 24.277 15.8992 24.5514C15.995 24.5462 16.0027 24.5514 16.0027 24.5514C16.0027 24.5514 15.6636 24.5954 15.4202 24.7249C15.3684 24.7249 15.2804 24.7068 15.125 24.7508C15.0034 24.7896 14.8428 24.8776 14.6772 24.9242C14.4416 24.9941 14.3639 24.9631 14.3639 24.9631L14.4027 25.0407C14.4027 25.0407 14.0946 25.0356 13.9937 25.0459C14.0118 25.0511 14.0066 25.0589 14.0066 25.0589C14.0066 25.0589 13.9937 25.0589 13.9548 25.077C13.9238 25.0951 13.872 25.1288 13.7943 25.1469C13.7632 25.1521 13.7373 25.1521 13.6985 25.1598C13.7115 25.1909 13.8124 25.3644 13.859 25.4679C13.8202 25.4938 13.2377 25.934 13.2377 25.934C13.2377 25.934 13.2636 25.9728 13.2817 26.0246C13.2998 26.0815 13.3076 26.1644 13.3257 26.2032C13.3697 26.2809 13.3956 26.2938 13.3956 26.2938C13.3956 26.2938 13.3257 26.3068 13.204 26.3378C13.1005 26.3637 12.9736 26.4077 12.795 26.4336C12.7432 26.4388 12.6862 26.4466 12.6293 26.4466C12.6551 26.5035 12.7691 26.721 12.5594 26.9721C12.3471 27.2207 12.2849 27.2595 12.2202 27.42C12.2021 27.4071 12.1684 27.3812 12.1166 27.3553C12.0467 27.3242 11.9509 27.2776 11.9173 27.2155C11.9121 27.2414 11.8862 27.3424 11.8396 27.4589C11.7749 27.6323 11.6791 27.8032 11.661 27.9327C11.5911 27.855 11.4616 27.7022 11.283 27.7333C11.1043 27.7644 10.9619 28.0077 10.9309 28.0776C10.9309 28.0336 10.8998 28 10.892 28.0517C10.8869 28.1087 10.7885 28.7042 10.2396 29.1857C10.2344 29.064 10.2344 28.7948 10.2215 28.7068C10.1697 28.7585 10.1076 28.8336 9.73476 28.9941C9.36971 29.1547 9.42667 29.3152 9.42667 29.3152C9.42667 29.3152 9.3956 29.0589 9.59236 28.7896C9.79172 28.5204 9.9134 28.3935 9.9134 28.3728C9.9134 28.3676 9.90822 28.3417 9.88751 28.3158C9.86162 28.2899 9.80984 28.2589 9.80984 28.2382C9.84091 28.2252 10.149 28.0776 10.1309 27.7721C10.1128 27.4977 9.99625 27.3553 9.9134 27.2543C9.90045 27.2414 10.0351 27.1456 10.017 27.1145C10.004 27.0964 9.83832 26.9747 9.81761 26.91C9.82278 26.8789 9.83055 26.8272 9.8435 26.7961C9.86162 26.7391 9.87456 26.7003 9.86939 26.6615C9.85644 26.5967 9.78654 26.4181 9.76583 26.4C9.78395 26.4051 9.9134 26.4 9.9134 26.4C9.9134 26.4 9.80984 26.2343 9.79172 26.1566C9.77359 26.0789 9.73476 25.8744 9.71405 25.8356C9.75806 25.8407 9.8668 25.8485 9.8668 25.8356C9.87197 25.7967 9.771 25.732 9.81502 25.6828C9.84608 25.688 9.90563 25.7139 9.96259 25.7864C9.93152 25.7035 9.87974 25.543 9.771 25.4783C9.82278 25.4602 9.99625 25.4136 10.149 25.5042C10.3017 25.5948 10.3535 25.7217 10.3535 25.7217C10.3535 25.7217 10.4441 25.7916 10.5839 25.8951C10.7445 26.022 10.949 26.2032 11.2752 26.3301C11.3451 26.3689 11.5238 26.3689 11.6532 26.343C11.7309 26.3249 11.7749 26.299 11.8137 26.2783C11.8448 26.2602 11.8707 26.2524 11.8707 26.2524C11.8707 26.2524 11.8189 26.1488 11.7749 26.0919C11.8189 26.0919 11.8707 26.0971 11.8707 26.0971C11.8707 26.0971 11.9017 26.0272 11.7619 25.8925C11.793 25.8615 11.8318 25.8407 11.8318 25.789C11.7878 25.7838 11.7102 25.7191 11.692 25.6932C11.7179 25.6751 11.7568 25.6155 11.8008 25.5974C11.7619 25.5663 11.6661 25.4369 11.6221 25.4239C11.6661 25.411 11.7438 25.367 11.7438 25.367C11.7438 25.367 11.5263 25.31 11.4564 25.2634C11.3865 25.2116 11.283 25.1236 11.2208 25.0977C11.1561 25.0718 11.0422 25.0589 10.9956 25.0071C11.0396 25.02 11.1095 25.0071 11.1613 25.0071C11.2001 25.0071 11.2183 25.0123 11.2312 25.0123C11.226 24.9941 11.226 24.9553 11.327 24.9424C11.4228 24.9242 11.4668 24.8984 11.4668 24.8984C11.4668 24.8984 11.371 24.8932 11.2623 24.7896C11.1535 24.6861 11.0629 24.6032 11.0008 24.5903C10.9361 24.5773 10.8144 24.6343 10.7393 24.6291C10.6357 24.6162 10.5917 24.5644 10.5917 24.5644C10.5917 24.5644 10.2474 24.5954 9.48362 24.1294C8.82343 23.7255 8.53605 23.3683 8.53605 23.3683C8.53605 23.3683 8.45838 23.3424 8.35741 23.2854C8.10887 23.156 7.76453 22.8867 7.77489 22.5346V22.5346Z" fill="#C2A44D"/>
<path d="M17.2997 6.99545C17.2997 6.99545 17.3903 7.02134 17.4524 7.09901C17.5741 7.23882 17.6518 7.50289 17.3748 7.78509C17.4835 7.82393 17.5275 7.83687 17.6233 7.82393C17.5275 7.93784 17.3101 8.18121 17.2971 8.39351C17.2842 8.56697 17.3929 8.61875 17.3929 8.61875C17.3929 8.61875 17.2272 8.81034 17.2194 9.13137C17.2583 9.08736 17.3463 8.99157 17.4757 8.88801C17.6673 8.73525 17.9314 8.56179 18.1101 8.45305C18.1049 8.52296 18.1282 8.58768 18.1282 8.58768C18.1282 8.58768 18.4622 8.31325 18.7418 8.43493C18.8686 8.49189 18.8117 8.67053 18.8117 8.67053C18.8117 8.67053 18.9851 8.60581 19.1068 8.72749C19.2285 8.84917 19.402 9.16244 19.49 9.28412C19.5288 9.34108 19.6298 9.44982 19.7334 9.6181C19.855 9.81746 19.9897 10.0919 20.0855 10.3611C20.0906 10.2265 20.1243 10.0168 20.5075 10.1488C20.8906 10.2835 21.3256 10.5657 21.6906 11.1223C22.0557 11.6789 22.1463 12.3055 22.3301 12.5437C22.5165 12.7741 22.7081 13.1573 22.7211 13.3178C22.734 13.4783 22.6641 13.9961 23.0473 15.3967C23.156 14.9618 23.3217 13.9961 23.3217 13.9961L23.4123 13.1443L23.5159 10.5087L20.7638 8.22263L18.6123 6.66147L17.2117 6.7961L17.2997 6.99545V6.99545Z" fill="#CAA13E"/>
<path d="M22.4129 10.9178C22.4129 10.9178 22.3741 10.6615 21.7269 10.2266C21.0796 9.7968 20.5748 9.7968 20.1087 9.43175C19.7515 9.14437 19.3786 8.48418 19.1353 8.2667C18.8997 8.05182 18.8608 7.43046 18.8608 7.43046L19.6557 6.76509L20.8388 5.05635L21.8382 3.95602L22.3172 4.6214L22.9825 5.40327L23.3527 6.97221L23.4874 9.26865L22.4129 10.9178V10.9178Z" fill="#B59544"/>
<path d="M23.2129 13.6699C23.2129 13.6699 23.257 13.1703 23.0861 12.6395C22.9152 12.1088 22.5424 11.1664 22.3689 10.8143C22.299 10.4233 22.3508 10.3923 22.4259 10.3483C22.5036 10.3042 22.7832 10.1437 22.9385 9.57933C23.0913 9.01493 23.5728 8.9968 23.5728 8.9968L23.868 8.77933L24.3159 9.90036L24.7068 10.9127L24.8285 11.6868L24.9191 12.347L24.7068 13.7424L23.6582 14.69L23.2129 13.6699V13.6699Z" fill="#C89D3A"/>
<path d="M8.31334 31.1871C8.31334 31.1871 8.07774 30.7521 8.06479 30.5657C8.05961 30.3871 8.12952 30.2706 8.12952 30.2706C8.12952 30.2706 8.0389 30.136 7.95605 30.1049C7.97418 30.0143 8.00783 29.9055 8.07774 29.8305C8.14764 29.7476 8.28227 29.6389 8.30816 29.6C8.33405 29.5612 8.34699 29.5094 8.42207 29.4965C8.49974 29.4835 8.58259 29.4835 8.58259 29.3826V29.1962C8.58259 29.1962 8.61366 29.178 8.63955 29.1444C8.65767 29.1185 8.67062 29.0874 8.68356 29.0796C8.70945 29.0667 8.83114 29.0279 8.89586 29.0408C8.96059 29.0538 9.13146 29.1237 9.22207 29.1185C9.40848 29.1133 9.62596 28.9709 9.97029 29.0356C10.4881 29.1314 10.6098 29.4835 10.9101 29.6829C11.1146 29.8227 11.3269 29.7606 11.358 29.7606H11.4279C11.4408 29.7606 11.5366 29.6518 11.5884 29.657C11.692 29.6622 11.7023 29.7476 11.7671 29.7528C11.9198 29.7709 12.215 29.6751 12.3625 29.714C12.4324 29.7321 12.523 29.8046 12.5489 29.9004C12.58 29.9962 12.5541 30.1178 12.479 30.1877C12.3185 30.3353 12.1658 30.4751 12.1347 30.5968C12.1787 30.6279 12.2564 30.7004 12.2564 30.7004C12.2564 30.7004 12.1865 30.7651 12.057 30.8272C12.0001 30.8531 11.9095 30.8971 11.8085 30.9101C11.6169 30.9282 11.3787 30.9541 11.2389 31.1586C11.0991 31.3631 10.6175 31.2492 10.6175 31.2492C10.6175 31.2492 10.2626 31.508 9.87506 31.5001C9.61711 31.4948 9.01112 31.7025 8.68356 31.6251C8.36004 31.5486 8.31334 31.1871 8.31334 31.1871Z" fill="#CEB052"/>
<path d="M22.3689 24.0518C22.3689 24.0518 22.7728 23.5133 22.9126 23.2466C23.0524 22.9722 22.4699 19.49 22.4699 19.49L23.6401 15.6557L23.609 14.4078C23.609 14.4078 23.666 13.2557 23.8006 12.756C23.9611 13.0434 24.4608 13.3903 24.5695 13.5741C24.6213 13.222 24.7948 12.479 24.7689 11.6868C24.8647 11.8343 25.0951 13.3178 25.0951 13.3178L25.3255 14.3172L25.6259 15.3787L25.9598 16.4997L26.1592 17.2738L26.2731 17.4602L26.3689 17.7864L26.4595 18.1385L26.721 18.9644L26.8738 19.6428L26.9954 20.8725C26.9954 20.8725 27.0394 21.0253 27.0524 21.1599C27.0576 21.2945 27.0343 21.3722 27.0343 21.3955C27.0343 21.4214 27.0783 21.6907 27.0602 21.8952C27.0343 22.0997 27.0343 22.2602 26.8738 22.4078C26.7132 22.5554 26.6123 23.433 26.6123 23.433L26.3249 23.2415C26.3249 23.2415 26.3818 22.98 26.2472 22.7418C26.1126 22.5062 25.8511 22.4544 25.7035 22.4932C25.556 22.5243 25.2608 22.5709 25.165 22.6538C25.0744 22.7366 24.8517 22.9929 24.6472 23.1094C24.3909 23.2622 23.9741 23.2751 23.7514 23.3269C23.5262 23.3787 23.2776 23.5314 23.0161 23.7101C22.7443 23.8861 22.4699 24.013 22.3689 24.0518V24.0518Z" fill="#CCA847"/>
<path d="M22.3689 29.7088C22.3689 29.7088 22.5941 29.8564 23.0084 29.9573C23.4226 30.0583 24.4815 30.6667 24.4815 30.6667L25.3747 32.0001H26.4492H27.4071C27.4071 32.0001 27.4692 30.7496 27.4071 29.2246C27.3424 27.6945 27.2932 27.4771 27.2932 27.3632C27.2932 27.2492 27.2543 25.3075 27.2103 24.8855C27.1663 24.4635 27.1974 24.0337 27.1844 23.7852C27.1715 23.5366 27.0317 22.5243 26.967 22.2628C26.8971 22.0013 26.7624 21.8719 26.7417 21.8719C26.7236 21.8771 26.6149 22.3638 26.6149 22.4855C26.6149 22.6072 26.589 22.9023 26.589 22.9774C26.5708 22.9722 26.5631 22.9256 26.5631 22.9075C26.5372 22.9722 26.5061 23.0861 26.4932 23.0991C26.4802 23.112 26.5113 22.9903 26.4932 22.9644C26.475 22.9386 26.4414 22.9515 26.4492 22.8868C26.4543 22.822 26.4673 22.7729 26.4673 22.7729C26.4673 22.7729 26.3896 22.8868 26.3326 23.1767C26.2757 23.4641 26.2757 23.4719 26.255 23.4978C26.2369 23.5288 26.1333 23.6324 26.1281 23.6712C26.1229 23.7411 26.2239 23.811 26.2317 23.8499C26.2369 23.9146 26.1411 24.2149 26.11 24.3625C26.0789 24.5101 26.0919 24.7975 26.0582 24.945C26.0323 25.0797 26.0064 25.1573 25.9184 25.2143C25.9831 25.2272 26.0453 25.2454 26.0453 25.2454C26.0453 25.2454 26.1359 25.6285 25.9055 25.9547C25.8226 26.0687 25.8019 26.1204 25.7139 26.224C25.5404 26.4156 25.4058 26.6331 25.3928 26.7754C25.3799 26.7237 25.3747 26.6486 25.3747 26.6486C25.3747 26.6486 25.1055 26.9619 24.9915 27.1405C24.844 27.3709 24.6394 27.358 24.5825 27.4149C24.5255 27.4719 24.5126 27.5754 24.5307 27.6583C24.4789 27.6712 24.3831 27.6894 24.3184 27.8887C24.2873 27.9923 24.2097 28.0932 24.088 28.1632C23.9663 28.2331 23.8187 28.2538 23.7437 28.2719C23.8084 28.29 23.8343 28.29 23.8653 28.3107C23.8265 28.3754 23.6479 28.4764 23.4485 28.6059C23.2492 28.7276 23.1534 28.9062 23.1042 29.0227C23.0524 29.1314 22.9773 29.2013 22.8556 29.2143C22.9074 29.2454 22.9825 29.3178 23.0213 29.3411C22.9644 29.3541 22.8686 29.3541 22.6951 29.5017C22.5139 29.6518 22.4517 29.6958 22.3689 29.7088Z" fill="#C39D3C"/>
<path d="M18.5217 31.1431C18.5217 31.1431 18.6822 30.8946 19.0861 30.7393C19.49 30.5787 19.9172 30.5477 20.0855 30.4959C20.246 30.4441 20.3729 30.3742 20.5722 30.3354C20.5541 30.4881 20.5463 30.6098 20.5023 30.7134C20.6499 30.7393 21.0201 30.4519 21.2195 30.3872C21.4188 30.3224 21.8719 30.2266 21.9107 30.1956C21.9496 30.1645 22.0324 29.9781 22.0583 29.9703C22.0842 29.9651 22.1541 30.0092 22.1981 30.0092C22.281 30.0092 22.8635 29.4706 23.3243 29.4784C23.78 29.4836 24.2978 29.8616 24.2201 30.2007C24.3418 30.1308 24.4687 30.0661 24.5722 30.092C24.5593 30.136 24.5541 30.1878 24.5541 30.1878C24.5541 30.1878 24.8026 30.1308 24.8674 30.2137C24.9373 30.2965 24.8984 30.3742 25.0667 30.571C25.2013 30.7367 25.1625 30.7755 25.1366 30.8325C25.2013 30.8506 25.5198 30.9593 25.8149 31.2363C26.1101 31.5108 26 32.0001 26 32.0001H18.5217V31.1431Z" fill="#D2BA6B"/>
<path d="M26.2137 20.2874C26.2137 20.2874 26.1309 20.7353 25.9833 21.0175C25.8357 21.2997 25.6752 21.6906 25.6752 21.6906C25.6752 21.6906 25.6752 21.5508 25.7063 21.4291C25.5199 21.5379 25.0668 21.7994 24.9373 21.9159C24.8156 22.0246 24.6111 22.2162 24.5593 22.3068C24.681 21.9495 24.8079 21.6285 24.8286 21.4809C24.6422 21.6156 23.7723 22.3327 23.3192 22.8065L21.9082 23.9482C21.9082 23.9482 21.6907 24.0699 21.4085 24.1838C21.1652 24.2874 20.8778 24.3754 20.6655 24.4583C20.7224 24.3055 20.8131 24.1709 20.9399 24.0414C21.0745 23.9146 21.4784 23.477 21.5406 23.2725C21.5975 23.0602 21.6105 22.9334 21.5354 22.7547C21.4655 22.7728 21.305 22.7806 21.1962 22.8117C21.0875 22.8427 20.971 22.9592 20.971 22.9592C20.971 22.9592 21.0538 22.4855 21.2325 22.0376C21.0978 22.0427 20.8674 22.0816 20.8674 22.0816C20.8674 22.0816 21.1885 21.5431 21.7373 21.1677C21.6467 21.1858 21.4422 21.2376 21.2454 21.3204C20.9244 21.455 20.5723 21.6544 20.3108 21.7631C20.4584 21.5586 21.494 20.0803 22.1101 18.7029C22.7237 17.3282 22.9542 16.9761 23.0888 16.2382C23.1587 15.8732 23.1406 15.3346 23.1587 14.8505C23.1768 14.3715 23.2364 13.9418 23.1975 13.6544C23.358 13.8537 23.9587 14.4156 23.9794 15.6712C23.9975 16.9269 23.4046 18.6227 22.7755 19.5366C22.9283 19.5806 23.327 19.6324 23.736 18.923C24.1451 18.2136 24.1399 18.0143 24.2875 17.7191C24.3056 17.8667 24.3004 17.9185 24.3004 17.9185C24.3004 17.9185 24.8959 17.1961 25.1781 16.2874C25.2351 16.6783 25.4033 17.0227 25.1393 17.7398C24.9037 18.3871 24.5956 18.545 24.5956 18.545C24.5956 18.545 24.7483 18.5191 24.9736 18.3845C25.0124 18.4803 25.0046 18.589 25.0694 18.6279C25.1341 18.6667 25.2221 18.7314 25.2351 18.7935C25.305 18.69 25.4137 18.5579 25.4474 18.4596C25.4215 18.6641 25.4033 19.5599 25.4991 20.0156C25.6985 19.9974 25.903 19.9845 26.0428 19.6246C25.947 19.9767 25.947 20.189 26.0118 20.4893C26.1179 20.4168 26.2137 20.2874 26.2137 20.2874V20.2874Z" fill="#C0993A"/>
<path d="M19.4874 6.01682C19.4874 6.01682 19.288 6.09966 18.9489 6.09966C18.6537 6.09966 18.7366 5.98575 18.2757 5.98575C17.5664 5.98575 15.0887 6.39481 14.6537 6.38963C14.3715 6.38445 15.6065 6.51131 15.6065 6.51131L18.7625 6.55533L19.3968 6.50355L19.6324 6.02458L19.4874 6.01682V6.01682Z" fill="#A88F33"/>
<path d="M11.3034 12.1865C11.3034 12.1865 10.8995 12.4946 10.7286 12.7302C10.5552 12.9657 10.4671 13.1211 10.2729 13.3127C10.3377 13.3179 10.4076 13.2946 10.4076 13.2946C10.4076 13.2946 10.4076 13.3463 10.3765 13.3593C10.4412 13.3541 10.4904 13.3774 10.5241 13.4111C10.4671 13.4421 10.3118 13.5975 10.4335 13.7813C10.5241 13.9211 10.7157 13.934 10.7157 13.934C10.7157 13.934 10.6717 14.0609 10.8555 14.0479C11.2516 14.0298 11.6943 13.8564 11.8988 13.9004C12.1034 13.9522 12.2199 13.9703 12.3649 14.2214C12.5176 14.47 12.6522 14.5088 12.6522 14.5088C12.6522 14.5088 12.7429 14.2784 12.7221 13.934C12.8438 13.6389 12.8438 13.3515 12.8438 13.3515L12.7092 12.3599L12.1215 11.6169L11.3603 12.0389L11.3034 12.1865V12.1865Z" fill="#E3C571"/>
<path d="M12.0259 12.0389C12.0259 12.0389 12.0828 12.1735 12.321 12.1864C12.2951 12.2434 12.2951 12.2512 12.3029 12.2952C12.3081 12.3392 12.3158 12.4039 12.3158 12.4039C12.3158 12.4039 12.3469 12.391 12.3857 12.3521C12.3987 12.4091 12.3728 12.4997 12.3857 12.5644C12.3987 12.6292 12.4246 12.6784 12.4246 12.6784C12.4246 12.6784 12.4298 12.6654 12.4375 12.6525C12.4427 12.6395 12.4893 12.7923 12.6162 12.9088C12.6162 12.8777 12.6291 12.857 12.6291 12.857C12.6291 12.857 12.6291 12.901 12.6602 12.9476C12.6472 12.9424 12.6343 12.9295 12.6343 12.9295C12.6343 12.9295 12.6472 13.3385 12.7171 13.5508C12.7353 13.525 12.743 13.5198 12.7482 13.5068C12.7482 13.4939 12.743 13.6207 12.7301 13.7114C12.712 13.802 12.7249 13.9288 12.7249 13.9288C12.7249 13.9288 12.7948 13.8719 12.8777 13.8382C12.9553 13.8072 13.0822 13.7114 13.1599 13.4991C13.2375 13.2868 13.2634 13.1288 13.2634 13.1288C13.2634 13.1288 13.3074 13.2117 13.3152 13.2816C13.3204 13.3463 13.4421 13.3127 13.4421 13.3127L13.468 13.0305L13.6207 12.391L13.7605 11.9949L14.4336 10.9463L15.6505 10.0117L16.712 10.255L17.6078 9.03822L16.0647 8.11136L14.6045 8.26411L13.279 10.0997L12.2175 11.7644L12.0259 12.0389V12.0389Z" fill="#D8B65B"/>
<path d="M19.674 9.38254C19.674 9.38254 19.5833 9.40066 19.3218 9.53529C19.0604 9.66992 18.8791 9.71393 18.7782 9.91328C18.6746 10.1126 18.6694 10.2706 18.6694 10.2706C18.6694 10.2706 18.8481 10.1929 18.9516 10.167C19.0604 10.1411 19.182 10.1489 19.1691 10.1929C19.1562 10.2317 19.1173 10.2757 19.1173 10.2757C19.1173 10.2757 19.3218 10.2706 19.3167 10.3715C19.3115 10.4751 19.2778 10.5838 19.239 10.633C19.2002 10.6848 19.0396 10.7599 19.0215 10.8194C18.9775 10.9411 19.0396 10.9463 19.0163 11.0447C18.9982 11.1405 18.9128 11.3269 18.6332 11.6531C18.3458 11.9793 18.2241 12.2097 18.2241 12.2097C18.2241 12.2097 18.0843 11.9482 18.0118 11.723C17.96 11.7489 17.6856 11.9016 17.6856 11.9016L17.0487 9.68286L17.0617 9.53529C17.0617 9.53529 17.1186 9.46539 17.1316 9.33594C17.0358 9.30487 17.0228 9.27898 16.896 9.1573C16.7691 9.03561 16.6655 8.88804 16.4532 8.78707C16.4222 8.73011 16.3833 8.65244 16.228 8.62137C16.0752 8.5903 15.9795 8.56441 15.9795 8.56441C15.9795 8.56441 16.0623 8.53335 16.1011 8.46862C16.0053 8.48157 15.9277 8.51264 15.718 8.50746C15.5057 8.50228 15.4824 8.49451 15.3659 8.51263C15.2494 8.53076 15.1096 8.58254 15.0578 8.4039C15.0008 8.35988 14.8791 8.39872 14.7756 8.55147C14.672 8.70422 14.6358 8.8259 14.4364 8.88545C14.4312 8.92429 14.4105 9.02526 14.3458 9.13399C14.2888 9.22979 14.1982 9.32558 14.0765 9.46798C13.885 9.69322 13.916 10.0634 13.6105 10.3456C13.3024 10.6278 13.6623 9.56377 13.6623 9.56377L14.1542 8.38577L15.5549 7.01619L17.7296 6.86862L17.9419 7.99484L19.0034 8.35988L19.674 9.38254V9.38254Z" fill="#D3AE4D"/>
<path d="M20.0179 9.63112L19.104 8.31332L18.4645 7.82141C18.4645 7.82141 18.0089 6.98258 17.9778 6.95669C17.9519 6.93857 17.5222 6.89196 17.2477 6.87384L17.2995 7.0007C17.2995 7.0007 17.3901 7.02659 17.4522 7.10426C17.5739 7.24407 17.6516 7.50814 17.3746 7.79034C17.4833 7.82918 17.5273 7.84212 17.6231 7.82918C17.5273 7.9431 17.3099 8.18646 17.2969 8.39876C17.284 8.57222 17.3927 8.624 17.3927 8.624C17.3927 8.624 17.227 8.81559 17.2192 9.13662C17.2581 9.09261 17.3461 8.99682 17.4755 8.89326C17.6671 8.74051 17.9312 8.56704 18.1099 8.45831C18.1047 8.52821 18.128 8.59293 18.128 8.59293C18.128 8.59293 18.462 8.3185 18.7416 8.44018C18.8684 8.49714 18.8115 8.67578 18.8115 8.67578C18.8115 8.67578 18.9849 8.61106 19.1066 8.73274C19.2283 8.85442 19.4018 9.16769 19.4898 9.28937C19.5286 9.34633 19.6296 9.45507 19.7332 9.62336C19.8548 9.82271 19.9895 10.0971 20.0853 10.3664C20.0904 10.2628 20.1111 10.1179 20.2898 10.1179L20.0179 9.63112Z" fill="#CAA13E"/>
<path d="M6.31734 13.3747C6.31734 13.3747 6.25262 13.2142 6.31734 12.9009C6.38207 12.5877 6.48304 12.4401 6.51669 11.9793C6.54776 11.5184 6.85067 10.9437 6.85067 10.9437L7.68174 10.5657L8.26944 10.7262L8.44291 11.5132L7.69986 11.9223C7.69986 11.9223 7.66103 12.0958 7.45132 12.2356C7.23902 12.3754 6.95164 12.4841 6.88174 12.6265C6.81184 12.7741 6.79113 12.9009 6.79113 12.9009C6.79113 12.9009 6.57883 12.8569 6.45197 12.9967C6.31734 13.1391 6.32252 13.266 6.31734 13.3747V13.3747Z" fill="#F4EFC8"/>
<path d="M7.99476 13.1651C7.99476 13.1651 7.92485 13.2091 7.87307 13.3178C7.82129 13.235 7.69961 12.7431 7.69443 12.3004C7.68926 11.8577 7.66337 11.7489 7.76434 11.5962C7.8679 11.4434 8.26919 11.2829 8.21223 11.0085C8.15527 10.747 7.91709 10.6382 7.62453 10.7133C7.42 10.7651 7.26725 11.2 7.05495 11.4175C6.89443 11.5832 6.70285 11.5573 6.65107 11.6479C6.58116 11.7696 6.64589 11.8913 6.62518 11.969C6.62 11.9949 6.55527 12.1347 6.43877 12.303C6.20317 12.6421 5.80447 13.1211 5.75269 13.5509C5.77081 13.3075 5.75786 13.3023 5.82259 13.0331L5.78375 12.9683L6.04006 12.1295L6.20576 11.4382L6.57599 10.281L7.22841 9.09778L7.86272 8.3884L8.52291 8.43241L8.60058 9.424L8.97858 11.2855L9.7734 12.2641L8.49961 13.1211L7.99476 13.1651V13.1651Z" fill="#EBCC73"/>
<path d="M8.39109 13.5171C8.39109 13.5171 8.28235 13.543 8.24352 13.5223C8.20468 13.5042 8.16585 13.4783 8.17879 13.4524C8.19174 13.4265 8.26164 13.3825 8.26164 13.3618C8.26164 13.3437 8.25646 13.2919 8.19692 13.2841C8.13737 13.2764 8.11925 13.3152 8.11925 13.3152C8.11925 13.3152 8.06229 13.2712 8.01569 13.2634C8.05452 13.2582 8.09853 13.2582 8.09853 13.2582C8.09853 13.2582 7.9898 13.2065 7.87329 13.1935C7.93802 13.1547 8.06488 13.0408 8.14772 13.0408C8.23057 13.0408 8.28235 13.0278 8.26941 12.9838C8.25646 12.9398 8.19174 12.8751 8.12183 12.8492C8.14772 12.8181 8.16585 12.7715 8.10371 12.6447C8.03899 12.5178 8.06488 12.4324 8.08559 12.4013C8.10371 12.3625 8.16844 12.2925 8.1995 12.2485C8.23057 12.2045 8.25646 12.145 8.30824 12.1139C8.33413 12.0958 8.41698 12.0621 8.49983 12.0311C8.59044 12 8.66552 11.9612 8.7173 12C8.77426 12.0388 8.74837 12.0906 8.74837 12.0906C8.74837 12.0906 8.92701 12.0259 9.08753 12.1087C9.24805 12.1864 9.63899 12.2356 9.63899 12.2356L9.77879 12.5178L8.85193 13.3126L8.46876 13.5042L8.39109 13.5171V13.5171Z" fill="#E5C66B"/>
<path d="M9.67789 12.2175C9.67789 12.2175 9.39051 12.4091 9.32579 12.479C9.36462 12.4842 9.42935 12.5101 9.40346 12.5489C9.37239 12.5877 9.18598 12.7224 9.08242 12.8492C8.97368 12.9761 8.87012 13.1366 8.83388 13.2143C8.79504 13.2842 8.4999 13.4887 8.39893 13.5146C8.61122 13.5146 9.03841 13.2531 9.19893 13.2531C9.19375 13.3308 9.24294 13.4188 9.33355 13.4266C9.42417 13.4318 9.68566 13.4835 10.0378 13.2661C10.3899 13.0538 10.2734 12.8958 10.4209 12.7923C10.7031 12.6059 10.817 12.4402 10.9724 12.3366C11.1251 12.2331 11.208 12.2098 11.208 12.2098C11.208 12.2098 11.2132 12.1321 11.2598 12.1398C11.3038 12.145 11.3167 12.1839 11.3167 12.1839C11.3167 12.1839 11.586 11.9923 11.9303 11.9405C11.9174 11.9353 11.9122 11.9224 11.9122 11.9224C11.9122 11.9224 11.9381 11.9094 11.9433 11.8965C11.9433 11.8965 11.9614 11.8706 11.9743 11.8835C11.9873 11.8965 12.0054 11.9923 12.0313 12.0311C12.0882 12.0052 12.197 11.7619 12.197 11.7619L12.4585 11.0136V10.3301L12.2539 10.369L10.7187 11.0214L9.78663 11.9871L9.67789 12.2175V12.2175Z" fill="#E6BD62"/>
<path d="M14.0997 8.8647C14.0997 8.8647 14.2343 8.83364 14.3353 8.76891C14.3042 8.85176 14.3042 8.94237 14.1696 9.13914C14.035 9.33849 14.0298 9.36438 13.9211 9.56891C13.8123 9.78121 13.7994 10.0867 13.6958 10.2213C13.7787 10.1825 13.8434 10.1773 13.8434 10.1773C13.8434 10.1773 13.7398 10.2679 13.6958 10.3637C13.6518 10.4595 13.5742 10.6589 13.3826 10.7806C13.191 10.9022 12.9476 10.9799 12.6861 11.2673C12.4246 11.5495 12.1554 11.9068 12.0208 12.0362C12.0907 11.9145 12.1864 11.6712 12.2123 11.5107C12.2382 11.3501 12.2072 11.1586 12.2512 10.9463C12.2952 10.734 12.2952 10.5812 12.5075 10.211C12.7198 9.84076 13.0822 8.55402 13.0822 8.55402L13.8641 8.30548L14.0997 8.8647V8.8647Z" fill="#B6933F"/>
<path d="M13.5352 8.39092C13.5352 8.39092 13.2996 8.73008 13.2349 9.0304C13.1701 9.33072 13.2297 9.30484 13.1908 9.45241C13.152 9.59998 13.1908 9.72684 13.1908 9.72684C13.1908 9.72684 13.2944 9.54043 13.5171 9.40581C13.7397 9.27118 13.9209 9.17539 14.0297 9.06147C14.1384 8.93979 14.229 8.74043 14.4646 8.58768C14.3688 8.57474 14.2342 8.53073 14.2083 8.5359C14.3041 8.42717 14.5915 8.26147 14.8815 8.06212C15.1688 7.85759 15.1507 7.77474 15.6167 7.57021C15.464 7.5961 15.3915 7.55726 15.2646 7.57021C15.3164 7.46147 15.4951 7.40969 15.6737 7.23105C15.8523 7.05241 15.5598 6.78833 15.5598 6.78833L14.1954 7.61422L13.5352 8.39092V8.39092Z" fill="#C49937"/>
<path d="M9.83057 7.77478L9.86163 7.52624L10.2526 6.8997L10.6616 5.79938V4.29517L10.6306 3.42527L10.6953 2.85569L10.7445 2.67446L10.7963 2.60455L11.1302 2.77802L11.5911 3.40455L11.6351 4.61361L11.1872 6.52171L9.90824 7.91717L9.83057 7.77478Z" fill="#DFC068"/>
<path d="M10.8479 2.53465C10.8479 2.53465 10.6434 2.53983 10.5994 3.39161C10.5554 4.24339 10.5347 4.69128 10.5036 5.11329C10.4725 5.5353 10.4 5.79161 10.3638 6.04015C10.325 6.28869 10.3068 6.62785 10.1903 6.83497C10.1386 6.93077 10.0298 7.23109 9.7735 7.45633C9.48613 7.70488 9.05635 7.87834 8.99163 7.89128C8.87771 7.91717 8.30037 7.97413 8.06477 8.10358C7.98192 8.14759 7.83952 8.19937 7.6816 8.34695C7.36833 8.62915 6.9515 9.134 6.65117 9.74242C6.19033 10.6512 5.72949 13.2169 5.72949 13.2169L5.83305 13.0434C5.83305 13.0434 5.846 12.813 6.07642 12.4091C6.30166 12.0052 6.23694 11.5521 6.5502 10.778C6.67189 10.4829 6.82464 10.0997 7.01105 9.77349C7.30619 9.24274 7.66347 8.78708 8.02334 8.53853C8.61105 8.13465 9.25829 8.04662 9.25829 8.04662L9.95473 7.58578C9.95473 7.58578 10.0764 7.35018 10.2369 7.08093C10.4622 6.70293 10.7496 6.28093 10.8117 5.66734C10.9075 4.7586 10.6771 4.16313 10.69 3.62462C10.703 3.08611 10.7081 2.68999 10.8169 2.5942C10.9256 2.4984 10.8479 2.53465 10.8479 2.53465V2.53465Z" fill="#A88F33"/>
<path d="M10.8478 6.59938C10.8478 6.59938 11.1559 5.84339 11.2957 5.17284C11.3216 5.03821 11.3733 4.90359 11.3863 4.79485C11.451 4.16054 11.4691 3.89905 11.3863 3.55213C11.3216 3.29582 11.073 3.0654 10.9436 2.88676C10.8167 2.70035 10.7572 2.63045 10.783 2.59161C10.8089 2.55278 10.9099 2.48805 11.0083 2.49582C11.1041 2.501 11.3526 2.52171 11.5597 2.75213C11.7591 2.98255 11.917 3.76443 11.917 3.76443L12.0827 4.79485L12.5047 6.09452L10.8478 6.59938V6.59938Z" fill="#C99E3D"/>
<path d="M13.7346 5.81233C13.7346 5.81233 13.6777 5.83822 13.5741 5.81233C13.5793 5.86411 13.5689 5.96509 13.4706 6.02981C13.3618 5.9858 12.3443 6.07382 12.3443 6.07382C12.3443 6.07382 11.8706 5.99098 11.723 5.36444C11.6194 4.94761 11.8007 4.37285 11.7411 3.99486C11.6505 3.43823 11.5236 3.32949 11.5107 3.15602C11.4977 2.98256 11.4848 2.93855 11.4848 2.82981C11.4278 2.81687 11.3942 2.79874 11.3372 2.79874C11.3243 2.74696 11.3502 2.70295 11.2932 2.61234C11.3243 2.62528 11.5366 2.65117 11.7851 2.88677C11.9897 3.07835 11.9897 3.14826 12.0207 3.18709C12.0596 3.22593 12.3728 3.49518 12.5075 3.76185C12.6421 4.02852 12.9036 4.88289 12.9631 5.02269C12.9812 5.07965 13.0201 5.13661 13.1159 5.26606C13.266 5.45246 13.4861 5.76055 13.7346 5.81233V5.81233Z" fill="#B58634"/>
<path d="M12.0571 3.20001C12.1529 3.35276 12.3316 3.66085 12.4791 3.98707C12.6319 4.3314 12.7225 4.6136 12.9141 4.84403C12.8105 4.5437 12.6267 3.95341 12.518 3.7437C12.3963 3.52105 12.1477 3.28286 12.0571 3.20001Z" fill="#A88F33"/>
<path d="M10.2964 7.4563C10.2964 7.4563 10.0349 7.52102 9.5482 7.77733C9.38768 7.86018 9.23493 7.93008 9.08736 7.99481C8.70418 8.16827 8.29253 8.32879 7.96632 8.41682C7.99221 8.44788 8.00516 8.46083 8.00516 8.46083C8.00516 8.46083 8.00516 8.58769 8.07506 8.66018C8.03622 8.69902 7.51842 9.05112 7.67117 10.2291C7.77473 10.1903 7.89642 10.1385 7.91454 10.1385C7.94561 10.1437 7.95338 10.2291 7.99221 10.2291C8.03105 10.2291 8.15791 10.1773 8.29253 10.0039C8.28736 10.0738 8.20969 10.778 8.62652 11.2518C8.70419 11.1612 8.90095 10.8608 8.90095 10.8608L8.90613 10.765C8.90613 10.765 8.92425 10.4311 9.03299 10.1256C9.14173 9.81746 9.35402 9.59481 9.35402 9.59481L10.4621 8.01293L10.2964 7.4563V7.4563Z" fill="#E6C367"/>
<path d="M9.26089 9.77864C9.26089 9.77864 9.18322 9.83559 9.0952 9.86148C9.07707 9.79676 9.05118 9.57411 9.20393 9.35663C9.38258 9.09514 9.77351 8.75598 9.88225 8.48673C9.95216 8.31326 9.92109 7.87831 10.5424 7.32168C11.1638 6.76504 11.4072 6.57346 11.4072 6.57346L12.4117 6.0686L13.6467 6.55534L13.0331 8.96051L12.5567 10.0867L10.6615 9.72945L9.26089 9.77864V9.77864Z" fill="#DCBA5A"/>
<path d="M9.98315 9.12621L10.2188 8.83107V8.62136C10.2188 8.62136 10.4802 8.55146 10.7624 8.26408C11.0446 7.9767 11.4356 7.42524 11.7799 7.4589C12.1243 7.49774 12.1579 8.20712 12.1709 8.40647C12.1838 8.60583 12.2278 9.0589 12.2977 9.30227C12.3754 9.54563 11.4589 10.4673 11.4589 10.4673L10.8375 10.9411L9.98315 9.12621V9.12621Z" fill="#E9CE77"/>
<path d="M10.7134 11.5832C10.7134 11.5832 10.905 11.2828 10.7652 11.2181C10.848 11.0317 11.0008 10.8349 11.0008 10.8349C11.0008 10.8349 11.1095 10.5657 11.4616 10.2343C11.8137 9.9003 12.0312 9.68283 12.0881 9.46017C12.1451 9.23493 12.1451 9.01746 12.1451 9.01746C12.1451 9.01746 12.215 9.07441 12.2668 9.1003C12.3237 9.12619 12.593 9.34885 12.5542 9.79674C12.5153 10.2446 12.3496 10.431 12.3496 10.431C12.3496 10.431 12.1891 10.5916 12.0752 10.6744C11.9535 10.7573 11.9095 10.8531 11.705 10.8608C11.736 10.8349 11.7749 10.822 11.7749 10.822C11.7749 10.822 11.5626 10.7961 11.4487 10.8997C11.3347 11.0032 11.0914 11.3217 10.9697 11.4175C10.848 11.4951 10.7134 11.5832 10.7134 11.5832V11.5832Z" fill="#CDAE50"/>
<path d="M19.3218 6.54761C19.3218 6.54761 18.9127 6.38191 18.3691 6.3612C17.8254 6.34308 17.0305 6.37414 16.2513 6.37932C15.4124 6.3845 14.6513 6.09194 13.5949 6.04016C13.4215 5.9366 12.9814 5.48353 11.604 6.44405C11.6869 6.43887 12.6034 6.23175 12.9218 6.63045C13.2428 7.02657 13.1522 7.69971 13.1082 7.86023C13.0254 8.21751 12.7561 8.7379 12.6474 9.10295C12.5386 9.46799 12.5645 9.65958 12.4869 9.91589C12.4092 10.1722 12.2383 10.2991 12.3393 10.5942C12.4739 10.5114 12.5438 10.5114 12.7691 10.0065C12.9943 9.50165 12.9477 9.14178 13.3205 8.7146C13.6856 8.28482 14.294 7.69712 14.5244 7.54955C14.7548 7.40198 16.5904 6.44922 18.5114 7.35796C18.9749 7.30877 19.3218 6.54761 19.3218 6.54761V6.54761Z" fill="#D2A83E"/>
<path d="M12.378 6.19545C12.378 6.19545 12.3728 6.15144 12.365 6.13849C12.334 6.07377 12.2951 6.03493 12.2951 6.03493C12.2951 6.03493 11.8395 5.95208 11.609 5.97797C11.2052 6.02199 10.8401 6.52166 10.6692 6.77797C10.4958 7.03428 10.2861 7.4304 10.0556 7.63493C10.0608 7.60386 10.0427 7.57797 10.0427 7.57797C10.0427 7.57797 10.0556 7.5961 10.0297 7.62199C10.0039 7.64788 10.0039 7.66082 10.0168 7.67377L10.0556 7.7126C10.0686 7.7126 10.4259 7.55208 10.9126 7.09901C11.4304 6.62522 11.8265 6.38186 12.0336 6.29901C12.1916 6.22652 12.378 6.19545 12.378 6.19545V6.19545Z" fill="#C29637"/>
<path d="M21.2169 4.24857C21.2169 4.24857 21.1341 4.35213 21.0305 4.46604C20.8001 4.70941 20.4998 4.98384 20.2435 5.26604C20.0001 5.5353 19.7257 5.74501 19.4176 6.09711C19.1095 6.44921 18.7522 6.84015 18.6616 6.95407C18.5787 7.06798 18.514 7.25439 18.514 7.35018C18.47 7.31912 18.4182 7.28546 18.4182 7.28546C18.4182 7.28546 18.4441 7.33724 18.4959 7.39937C18.5606 7.48999 18.6616 7.60391 18.7134 7.67381C18.7962 7.78772 18.8402 7.92235 18.848 7.96895C18.8791 7.97413 19.0784 8.01297 19.327 7.60391C19.5755 7.19484 19.9017 6.74695 19.9017 6.74695L20.4195 5.97802L20.7457 5.32559L21.1548 4.59549L21.2169 4.24857V4.24857Z" fill="#AC8132"/>
<path d="M21.7476 3.72559C21.7476 3.72559 21.4343 3.9819 21.3126 4.13465C21.1909 4.2874 20.9036 4.69128 20.9036 4.69128L21.0071 4.67834L21.5327 4.21232L21.7372 3.84727L21.7476 3.72559V3.72559Z" fill="#A88F33"/>
<path d="M21.6519 24.3004C21.6519 24.3004 21.6467 24.0881 21.7658 23.9612C21.8875 23.8344 22.1956 23.6479 22.4959 22.9489C22.7962 22.2525 22.8299 22.092 22.8299 22.092C22.8299 22.092 22.2914 22.5528 21.96 22.6615C22.0376 22.501 22.0817 22.3871 22.1205 22.3043C22.0765 22.2654 21.8901 22.2214 21.872 22.2007C21.9755 22.0971 22.0325 21.8434 22.2422 21.6751C22.5114 21.4706 23.0033 21.1185 23.3865 20.8052C23.7697 20.492 24.5205 19.7619 24.6163 19.5496C24.6732 19.6324 24.6862 19.6842 24.6862 19.6842C24.6862 19.6842 24.3082 20.1761 24.1114 20.4894C23.938 20.7586 23.9509 20.9114 23.9509 20.9114L24.3082 20.7586C24.3082 20.7586 24.4118 21.1418 23.9432 21.7243C24.1477 21.6466 24.2305 21.6933 24.347 21.6285C24.1554 21.7502 23.8914 21.9159 23.6428 22.3716C23.3995 22.8272 23.0681 23.358 22.5088 23.6894C21.9652 24.0389 21.6519 24.3004 21.6519 24.3004V24.3004Z" fill="#A67A2E"/>
<path d="M20.2487 6.81682C20.2487 6.81682 20.0364 7.25954 20.0053 7.60388C20.0001 7.68673 19.9794 7.75145 19.9794 7.84724C19.9742 8.15534 19.9975 8.49967 19.9276 8.66019C19.9018 8.59546 19.8888 8.55145 19.8629 8.52556C19.8241 8.6343 19.7542 8.97346 19.6972 9.10032C19.6713 9.01747 19.6144 8.73009 19.6196 8.39093C19.6247 8.05178 19.6325 7.98705 19.6325 7.91715C19.6196 8.02071 19.5497 8.16051 19.5238 8.24336C19.4849 8.17346 19.4409 8.08284 19.3891 8.00776C19.3581 8.05954 19.3192 8.13462 19.2856 8.17346C19.2804 8.14239 19.2675 8.05954 19.2597 7.94304C19.2545 7.80841 19.2467 7.63495 19.2545 7.5987C19.2675 7.5288 19.3762 7.25436 19.6066 7.00323C19.881 6.70291 20.1632 6.12556 20.2461 5.94692C20.3289 5.76828 20.681 5.02524 20.681 5.02524H20.9503L20.5594 5.91585C20.5594 5.91585 20.3238 6.40258 20.2021 6.58122C20.0804 6.75987 19.8241 7.27249 19.7102 7.47184C19.793 7.3631 19.8629 7.30614 19.9458 7.20258C20.026 7.13009 20.2487 6.81682 20.2487 6.81682V6.81682Z" fill="#8C6228"/>
<path d="M21.7527 3.69193C21.7527 3.69193 21.701 3.87833 21.5482 4.06215C21.3877 4.25374 21.0434 4.51005 20.8751 4.71458C20.7223 4.91393 20.4142 5.45762 20.554 6.10228C20.6058 5.96248 20.7016 5.68545 20.9579 5.37218C21.2142 5.05892 21.4887 4.69904 21.6233 4.41943C21.7579 4.13723 21.776 3.91458 21.776 3.91458L21.8278 3.84985L21.7968 3.70228L21.7527 3.69193Z" fill="#CBA94C"/>
<path d="M26.9954 20.8647C26.9954 20.8647 26.8919 20.5825 26.8608 20.3262C26.8297 20.0699 26.9126 20.0181 26.8168 19.7256C26.7598 19.5469 26.6563 19.5728 26.6304 19.5469C26.6045 19.521 26.5864 19.2518 26.5915 19.1042C26.5967 18.9566 26.5864 18.7651 26.5605 18.6822C26.5216 18.6511 26.4957 18.6253 26.4388 18.4337C26.3741 18.2421 26.343 18.1463 26.3119 18.0893C26.2809 18.0324 26.1902 17.9806 26.1902 17.9236C26.1902 17.8097 26.2938 17.7502 26.2938 17.7191C26.2886 17.6544 26.211 17.7062 26.1902 17.688C26.1644 17.657 26.255 17.4706 26.2213 17.4447C26.2084 17.4317 26.1178 17.5405 26.0945 17.5094C26.0686 17.4783 26.0375 17.1702 25.9909 16.9657C25.9469 16.7664 25.9003 16.6214 25.8951 16.5618C25.8899 16.5049 25.5378 15.5003 25.4524 15.257C25.3695 15.0136 25.3048 14.7521 25.2789 14.6304C25.253 14.5088 25.2349 14.2602 25.222 14.2861C25.209 14.312 25.2168 14.4388 25.1961 14.4337C25.1779 14.4285 25.1132 13.9858 25.0925 13.9159C25.0744 13.846 24.9656 13.6078 24.9398 13.4369C24.9139 13.2634 24.8569 12.8104 24.8181 12.5023C24.7792 12.1942 24.7611 12.0673 24.7611 11.9897C24.7611 11.9508 24.7741 11.7282 24.7301 11.4253C24.6783 11.099 24.5773 10.7029 24.4867 10.4725C24.3132 10.0376 23.8524 8.92429 23.7695 8.64726C23.7695 8.57736 23.8601 8.6162 23.8601 8.6162C23.8601 8.6162 24.0854 9.1806 24.2511 9.61555C24.4116 10.0505 24.5644 10.4337 24.6032 10.4725C24.6343 10.5113 24.8776 10.9385 24.9864 11.6376C25.0951 12.3366 25.1339 12.9812 25.1987 13.411C25.2297 13.6155 25.2556 13.833 25.3203 14.0505C25.3902 14.2861 25.499 14.5295 25.6414 14.9023C25.7631 15.2155 25.8537 15.477 25.9029 15.7023C25.9598 15.9897 25.9598 16.2071 25.9935 16.3495C26.0245 16.4712 26.0712 16.7146 26.1799 17.0667C26.2886 17.4188 26.4491 17.8719 26.5579 18.1541C26.7702 18.7185 26.866 19.1897 26.897 19.4408C26.9255 19.6997 27.0213 20.5955 26.9954 20.8647V20.8647Z" fill="#A88F33"/>
<path d="M21.7655 3.6609L21.7526 3.69197C21.7526 3.69197 21.7914 3.70491 21.7836 3.75669C21.7836 3.78258 21.7836 3.88355 21.7707 3.96899C21.7578 4.05961 21.7319 4.12951 21.7267 4.18647C21.7267 4.30815 21.7448 4.44795 21.5739 4.79488C21.5222 4.89067 21.4911 4.97352 21.4652 5.03048C21.4005 5.17029 21.3875 5.191 21.3306 5.25572C21.4212 5.20394 21.7474 4.99941 21.9131 5.03048C21.7992 5.0952 21.6257 5.22207 21.517 5.38776C21.5429 5.39294 21.6516 5.41365 21.8251 5.38776C22.1124 5.34375 22.4335 5.24019 22.7157 5.2609C23.0238 5.27902 22.9021 4.89067 22.9021 4.89067L22.5448 4.1088L21.8717 3.63501L21.7655 3.6609V3.6609Z" fill="#BE9C44"/>
<path d="M23.5211 9.51717C23.5211 9.51717 23.2207 9.21684 23.0991 8.18642C22.9774 7.15082 23.0033 5.6259 23.0033 5.6259L22.7599 5.03044C22.7599 5.03044 22.7081 4.63432 22.5813 4.48675C22.4544 4.33917 22.2033 4.09063 22.0893 3.96895C21.9754 3.84726 21.846 3.68157 21.7683 3.65568C21.8071 3.59095 21.9806 3.2259 22.646 3.22073C23.3114 3.21555 23.5159 3.58577 23.5858 3.7204C23.6557 3.85503 23.969 4.43755 24.0855 5.54565C24.1942 6.65374 24.1994 6.73658 24.1813 7.11976C24.1683 7.33205 24.0984 7.82396 23.9767 8.34953C23.8654 8.79484 23.7437 9.29192 23.5211 9.51717V9.51717Z" fill="#A17C34"/>
<path d="M22.5788 10.4C22.5788 10.4 22.7186 10.4181 22.8661 10.3353C22.9619 10.3301 23.3088 10.3741 23.5755 10.035C23.5936 10.1126 23.6402 10.3224 23.5186 10.5088C23.5833 10.444 23.6791 10.4181 23.692 10.4C23.6972 10.4958 23.7878 10.791 23.4046 11.5081C23.5082 11.3942 23.6299 11.3994 23.7386 11.3864C23.7438 11.5211 23.8163 11.9741 23.6247 12.2175C23.4978 12.3832 23.2907 12.3314 23.2907 12.3314C23.2907 12.3314 23.2959 12.2745 23.2907 12.2227C23.2855 12.1528 23.2597 12.0829 23.2778 12.0363C23.2519 12.0233 23.1432 11.9793 23.0085 11.8499C22.7833 11.6376 22.4907 11.2751 22.47 11.0058C22.4441 10.7055 22.7134 10.6408 22.7134 10.6408C22.7134 10.6408 22.6823 10.6149 22.6564 10.5709C22.6435 10.5269 22.6305 10.457 22.5788 10.4Z" fill="#8C6228"/>
<path d="M20.5824 7.14307C20.5824 7.14307 20.5694 7.12495 20.4995 7.2078C20.5125 7.12495 20.5254 7.04728 20.5306 6.9722C20.5565 6.91524 20.6005 6.84534 20.6574 6.78061C20.6186 6.85828 20.5927 6.92819 20.5927 6.92819C20.5927 6.92819 20.6885 6.74955 20.8283 6.64081C20.9241 6.56314 21.0458 6.52689 21.0976 6.4544C21.1545 6.37673 21.1416 6.36378 21.1545 6.35084C21.1545 6.35084 21.2814 6.26799 21.4756 6.02463C21.5015 5.99356 21.5403 5.9599 21.5662 5.92883C21.6102 5.91071 21.7138 5.86411 21.8354 5.80197C21.9623 5.73207 22.1047 5.63628 22.1927 5.59744C22.3662 5.51977 22.55 5.52754 22.6354 5.40586C22.7002 5.38773 22.7701 5.19356 22.7571 5.02786C22.8529 5.0667 23.3448 5.3722 23.5131 6.04016C23.6348 6.51395 23.4173 7.24404 23.3267 7.59615C23.2361 7.94825 23.2231 8.20974 23.0963 8.37026C22.9358 8.58255 22.418 8.88288 22.2911 9.03045C22.1824 9.15213 21.8561 9.46022 21.8691 9.68288C21.882 9.84857 22.0866 9.93919 22.1306 9.97026C22.1746 10.0013 22.1746 10.0402 22.2574 10.022C22.3403 10.0039 22.3714 9.96508 22.405 9.96508C22.4438 9.97026 22.4438 9.97802 22.462 9.97802C22.4801 9.97802 22.5008 9.97285 22.5008 9.97285C22.5008 9.97285 22.4879 10.2084 21.9364 10.2809C21.8976 10.2861 21.8587 10.2991 21.8095 10.3068C21.8743 10.2758 21.9131 10.2758 21.983 10.18C21.9053 10.167 21.6827 10.1541 21.6257 10.136C21.6438 10.1049 21.7034 10.022 21.7526 9.9832C21.7966 9.94437 21.7474 9.93142 21.7086 9.95213C21.6905 9.96508 21.605 10.022 21.517 10.0997C21.4523 10.1567 21.3953 10.2343 21.2917 10.3042C21.2607 10.2007 21.2659 10.0039 21.3875 9.86152C21.3565 9.8667 21.2969 9.95731 21.24 9.93919C21.2348 9.90035 21.227 9.77349 21.2581 9.65699C21.2892 9.54048 21.4574 9.33595 21.4574 9.33595L22.2704 7.88353L22.4438 6.7832L20.5824 7.14307V7.14307Z" fill="#92723A"/>
<path d="M20.5386 7.20521C20.5386 7.20521 20.4946 7.23628 20.5826 7.29583C20.5696 7.31395 20.5386 7.37868 20.4997 7.42269C20.4557 7.47447 20.4091 7.50554 20.391 7.54955C20.3522 7.64016 20.3211 7.7023 20.3211 7.74114C20.3211 7.77997 20.3081 8.02851 20.1994 8.18903C20.1606 8.24599 20.1166 8.34178 20.0855 8.40651C20.0208 8.52042 19.9638 8.61104 19.9509 8.66282C19.925 8.75343 19.9069 9.00198 19.9069 9.00198C19.9069 9.00198 19.9638 8.93207 19.9845 8.90618C19.9535 8.97091 19.9198 9.04081 19.8706 9.09259C19.9017 9.0667 19.9923 9.00198 20.145 8.86735C20.3573 8.68871 20.6887 8.38838 21.0926 8.1502C20.9709 8.19421 20.8674 8.19421 20.7845 8.20715C20.8492 8.14243 21.4318 7.45893 21.7373 7.39421C21.7683 7.35537 21.7632 7.31136 21.7632 7.31136L21.5017 7.28547L20.9709 7.39939L20.8933 6.99033L20.5386 7.20521V7.20521Z" fill="#B18E3E"/>
<path d="M21.3827 9.53527C21.3827 9.53527 21.3128 9.60517 21.2481 9.77863C21.2299 9.76051 21.1704 9.69579 21.1212 9.60517C21.0254 9.44465 20.8778 9.24012 20.5335 9.35663C20.5283 9.24789 20.5205 9.19093 20.5335 9.11326C20.5904 9.10032 20.7639 8.96051 20.9374 8.75598C21.0591 8.61618 21.173 8.45566 21.2506 8.25113C21.3024 8.21229 21.3904 8.14757 21.5069 8.07249C21.6726 7.95857 21.872 7.80323 21.9031 7.62977C21.8254 7.66084 21.6597 7.7385 21.4112 7.72556C21.5069 7.68155 21.6545 7.63494 21.6364 7.44336C21.6752 7.41747 21.7063 7.39935 21.7063 7.39935C21.7063 7.39935 21.6752 7.3864 21.6157 7.3864C21.6105 7.36828 21.6027 7.34239 21.5587 7.35533C21.5147 7.36828 21.5069 7.36828 21.5018 7.3864C21.4836 7.39158 21.4241 7.3864 21.3801 7.41747C21.3361 7.44854 21.2144 7.5521 21.1678 7.57022C21.1859 7.53915 21.2118 7.49255 21.2118 7.49255C21.2118 7.49255 21.0849 7.50549 20.9943 7.54433C20.8286 7.60129 20.637 7.70485 20.4429 7.80582C20.461 7.77475 20.4688 7.75404 20.4817 7.74886C20.4947 7.74368 20.5257 7.73592 20.5257 7.73074C20.5257 7.72556 20.5128 7.67896 20.5205 7.66083C20.5257 7.64271 20.6345 7.43041 20.7251 7.30873C20.8157 7.18705 20.8338 7.01359 20.8338 7.01359L21.2299 6.81423L22.3432 6.55792L23.0655 6.60194L22.9749 7.10161L22.5477 7.9741L22.1827 8.76893L21.7658 9.25566L21.3827 9.53527V9.53527Z" fill="#543E26"/>
<path d="M23.1871 7.37349C23.1871 7.37349 22.7522 7.91201 22.6305 7.99485C22.7082 7.82916 23.1871 6.84275 23.3606 6.56832C23.3218 6.53725 23.27 6.53725 23.3917 6.05569C23.2881 6.29906 23.2519 6.42592 23.1664 6.49065C23.0836 6.55537 23.0706 6.53466 23.0137 6.53466C23.0318 6.50359 23.0266 6.46993 23.0266 6.46993C23.0266 6.46993 22.6616 6.42592 22.413 6.42592C22.1645 6.42592 21.67 6.56055 21.3956 6.66929C21.1781 6.7599 21.0564 6.7599 20.9787 6.81686C20.9011 6.88158 20.857 6.95149 20.8182 6.96961C20.7871 6.98773 20.6396 7.03434 20.6059 7.08353C20.5748 7.13531 20.5231 7.19226 20.5231 7.20521C20.5231 7.21815 20.5101 7.23628 20.549 7.22333C20.5619 7.21815 20.6577 7.16637 20.7664 7.10165C20.914 7.0188 21.0926 6.92301 21.2221 6.86605C21.5923 6.71848 21.7088 6.74437 21.8745 6.7133C22.048 6.68223 22.2965 6.60974 22.4622 6.60974C22.6279 6.60456 22.9412 6.60974 23.0137 6.62269C22.9826 6.64858 22.9567 6.67964 22.9697 6.78838C22.9697 6.81945 22.9438 6.85311 22.9179 6.92819C22.8402 7.14048 22.6926 7.49259 22.6098 7.67123C22.4959 7.91459 22.3664 8.11913 22.3017 8.24599C22.237 8.37285 22.0972 8.70683 21.9574 8.88547C21.8176 9.06411 21.7451 9.17285 21.7011 9.21168C21.657 9.25052 21.3438 9.48094 21.3671 9.56379C21.424 9.54566 21.7839 9.41103 22.0454 9.11589C22.3069 8.82074 22.3587 8.6421 22.5632 8.48158C22.7677 8.32107 22.9282 8.05181 23.024 7.82916C23.1043 7.62204 23.0862 7.55731 23.1871 7.37349V7.37349Z" fill="#806031"/>
<path d="M13.8124 11.3916C13.8124 11.3916 13.7554 11.6272 13.626 11.7437C13.4991 11.8576 13.2739 11.956 13.248 12.1476C13.2169 12.3391 13.4732 12.4349 13.4732 12.4349C13.4732 12.4349 13.3334 12.6654 13.3334 12.8388C13.3334 13.0175 13.3282 13.0511 13.3464 13.222C13.3153 13.2401 13.2946 13.2738 13.2946 13.2738C13.2946 13.2738 13.3075 13.4395 13.4344 13.543C13.5612 13.6466 13.67 13.7087 13.7347 13.6828C13.7476 13.7087 13.7606 13.7476 13.7606 13.7476C13.7606 13.7476 13.8564 13.5042 13.9211 13.2919C13.9858 13.0744 14.0428 13.1055 14.0687 12.8129C14.0946 12.5178 14.3768 12.0181 14.3768 12.0181L14.5684 11.5883L14.2551 11.345L13.8124 11.3916Z" fill="#B6903C"/>
<path d="M14.3949 11.8137C14.3949 11.8137 14.2991 11.9095 14.2163 12.026C14.1334 12.1399 14.0687 12.2434 13.947 12.2874C13.8253 12.3315 13.7476 12.3315 13.7554 12.4531C13.7632 12.5748 13.8771 12.6266 13.9418 12.6887C14.0117 12.7535 14.0687 12.8622 14.0376 12.9839C14.0765 12.9658 14.1464 12.9451 14.2111 12.8052C14.2758 12.6654 14.7289 11.8137 14.7289 11.8137H14.3949Z" fill="#685026"/>
<path d="M16.1788 9.84857C16.1788 9.84857 16.2176 9.74501 16.1788 9.66993C16.1399 9.59226 15.9043 9.56637 15.7878 9.47835C15.6661 9.38773 15.5186 9.3256 15.3969 9.36443C15.415 9.32042 15.4875 9.22463 15.428 9.20391C15.371 9.18579 15.1587 9.28158 15.1017 9.3256C15.0448 9.36961 14.9153 9.42139 14.8894 9.45246C14.8636 9.48353 14.8195 9.54307 14.7937 9.51718C14.7678 9.49906 14.7548 9.45246 14.7108 9.47835C14.6668 9.50424 14.4545 9.6777 14.4157 9.77867C14.3768 9.87964 14.2888 10.1049 14.0247 10.3612C13.7632 10.6175 13.6467 10.7832 13.7244 10.879C13.8021 10.9748 13.8383 10.9049 13.8513 10.9877C13.8564 11.0266 13.8642 11.1275 13.8383 11.2311C13.8072 11.3657 13.7555 11.4926 13.8254 11.5185C14.004 11.5754 14.1775 11.4667 14.2163 11.5004C14.294 11.5703 14.1723 11.8214 14.3561 11.8706C14.5425 11.9224 14.7263 11.8266 14.7263 11.8266L15.4047 11.4615L16.0571 11.1172L16.3911 10.457L16.2124 9.90553L16.1788 9.84857V9.84857Z" fill="#D4B968"/>
<path d="M15.5394 11.4252C15.5394 11.4252 15.4254 11.2518 15.5652 11.099C15.7051 10.9463 15.9044 10.8816 15.9821 10.7858C15.9562 10.7547 15.9251 10.7469 15.9251 10.7469C15.9251 10.7469 15.995 10.6071 16.1504 10.5346C16.1115 10.4958 16.0597 10.4647 16.0028 10.4647C15.8759 10.4647 15.7983 10.5424 15.6817 10.5424C15.5678 10.5424 15.5549 10.4854 15.5549 10.4854C15.5549 10.4854 15.7465 10.4673 15.7284 10.3819C15.7102 10.2913 15.6766 10.2913 15.6766 10.2913C15.6766 10.2913 16.0468 10.1385 16.1115 10.0557C16.1762 9.97282 16.1685 9.87703 16.1814 9.8382C16.2254 9.8382 16.4817 9.70357 16.5853 9.76053C16.6889 9.81748 16.6164 9.97282 16.6164 9.97282C16.6164 9.97282 16.9296 9.73722 17.0902 9.5068C17.23 9.51975 17.2947 9.41101 17.3983 9.41101C17.5251 9.41101 17.7245 9.58447 17.7633 9.9547C17.7892 10.167 17.828 10.2887 17.7892 10.6641C17.7711 10.8764 17.7762 11.3295 17.841 11.5547C17.885 11.7333 17.9885 11.7152 17.9885 11.7152C17.9885 11.7152 17.9704 11.7929 17.8979 11.855C17.828 11.9197 17.8203 12.0906 17.828 12.1553C17.841 12.2201 17.8669 12.2952 17.8669 12.2952C17.8669 12.2952 17.784 12.3909 17.7633 12.4557C17.7452 12.5204 17.6597 12.5644 17.5976 12.5644C17.5329 12.5644 17.5665 12.5592 17.4837 12.5644C17.4008 12.5696 17.375 12.5825 17.3232 12.5644C17.2714 12.5463 17.2326 12.5256 17.2533 12.3599C17.2714 12.1942 16.6138 11.8084 16.6138 11.8084L15.5394 11.4252V11.4252Z" fill="#CCA849"/>
<path d="M14.3042 13.0616C14.3042 13.0616 14.5398 13.3748 15.5081 13.3748C15.9689 13.3748 16.1294 13.3308 16.2252 13.3049C16.3288 13.2791 16.7171 13.1263 17.1081 12.6655C17.4602 12.2486 17.3825 12.0778 17.3825 12.0778L17.178 12.0467L16.5126 12.1373L14.5424 12.9761L14.3042 13.0616Z" fill="#585136"/>
<path d="M15.0266 13.1392C15.0266 13.1392 14.1877 13.3256 14.1877 12.7948C14.1877 12.277 14.7055 11.7333 14.835 11.6375C14.9696 11.5418 15.2907 11.433 15.2907 11.433H16.0648L16.2123 11.824L16.1476 12.668L15.0266 13.1392V13.1392Z" fill="#252211"/>
<path d="M15.8009 11.5909C15.8009 11.5909 15.6404 11.4433 15.2753 11.6427C14.9103 11.842 14.6151 12.2563 14.597 12.6343C14.5789 12.9682 14.8714 13.2168 15.3271 13.2297C15.6662 13.2427 15.8708 13.2038 15.9743 13.178C15.9484 13.1469 15.8138 12.9786 15.8138 12.9786L15.8009 11.5909Z" fill="#C3B378"/>
<path d="M15.6426 11.6738C15.6426 11.6738 15.6038 11.6427 15.4899 11.7049C15.3941 11.7567 15.2543 11.8913 15.1455 11.9871C15.0756 12.044 15.0316 12.0699 14.9928 12.1139C14.8323 12.3055 14.6976 12.6188 14.7753 12.7741C14.853 12.9269 15.1093 13.1081 15.7617 12.9864L15.6426 11.6738V11.6738Z" fill="#E6D89C"/>
<path d="M15.4304 11.9948C15.4304 11.9948 15.3268 12.1554 15.3268 12.4117C15.3268 12.6732 15.4744 13.09 16.0181 13.1211C16.4349 13.1469 16.7145 12.5204 17.0174 12.277C17.2479 12.0906 17.3877 12.0855 17.3877 12.0855C17.3877 12.0855 17.1521 11.8291 16.5229 11.4978C15.9016 11.1638 15.2051 11.1198 14.8271 11.6324C15.0058 11.6194 15.5831 11.4719 15.5831 11.4719L15.8653 11.5625L15.4304 11.9948V11.9948Z" fill="#252211"/>
<path d="M16.2432 12.334C16.2251 12.2951 16.2122 12.2434 16.2872 12.2304C16.3649 12.2175 16.396 12.2252 16.4219 12.2822C16.4478 12.3391 16.4737 12.3857 16.4348 12.409C16.396 12.4298 16.295 12.409 16.2432 12.334V12.334ZM16.1216 11.9689C16.1216 11.9689 16.0957 11.987 16.1086 11.9508C16.1138 11.9068 16.1474 11.8291 16.2303 11.8472C16.3131 11.8654 16.295 11.956 16.2821 11.9819C16.2691 12.0078 16.1992 12.0518 16.1474 12.0336C16.0957 12.0155 16.1216 11.9689 16.1216 11.9689Z" fill="#6F674D"/>
<path d="M9.11328 12.1346C9.11328 12.1346 9.31781 12.2874 9.556 12.2822C9.7916 12.277 10.0945 12.0337 10.2343 11.8783C10.3172 11.7877 10.3871 11.6919 10.4647 11.6168C10.5295 11.5521 10.5735 11.5211 10.6045 11.477C10.6486 11.4253 10.6952 11.3295 10.7185 11.2984C10.6615 11.3424 10.5787 11.4201 10.4932 11.4719C10.4104 11.5236 10.2317 11.6194 10.1592 11.6453C10.0893 11.6712 9.36441 12.0544 9.36441 12.0544L9.11328 12.1346Z" fill="#AC924C"/>
<path d="M9.42651 10.2214C9.42651 10.2214 9.54043 10.1437 9.76049 10.0945C9.97279 10.0427 10.4 10.0039 10.4 10.0039L10.7521 10.1567L10.8919 10.6874L10.6356 11.2389L10.3094 11.4434L9.93913 10.8479L9.42651 10.2214V10.2214Z" fill="#9F8E57"/>
<path d="M8.96592 10.6951L8.84424 10.7858C8.84424 10.7858 8.87531 10.7288 8.9012 10.5553C8.92709 10.3819 9.06171 9.95986 9.25848 9.7165C9.45524 9.47313 9.45006 9.48608 9.45006 9.48608C9.45006 9.48608 9.39311 9.47313 9.3465 9.51197C9.37239 9.45501 9.53809 9.25048 9.70378 9.14692C9.86948 9.04336 9.93421 9.01229 10.1077 9.09514C10.2811 9.17799 10.3251 9.222 10.452 9.21682C10.5789 9.21164 10.6876 9.07702 10.6876 9.07702C10.6876 9.07702 10.7135 9.15987 10.6177 9.35145C10.5219 9.54304 10.1439 9.93398 10.1439 9.93398L9.35686 10.4725L8.96592 10.6951V10.6951Z" fill="#EAC970"/>
<path d="M9.54834 10.1567C9.54834 10.1567 10.1179 10.2343 10.2914 10.0738C10.2966 10.0919 10.3173 10.0919 10.3173 10.1049C10.3173 10.1178 10.3043 10.1308 10.3043 10.1308C10.3043 10.1308 10.3354 10.1256 10.3613 10.1256C10.3872 10.1308 10.4053 10.1385 10.4312 10.1385C10.4571 10.1385 10.4881 10.1334 10.4881 10.1334C10.4881 10.1334 10.483 10.1774 10.4493 10.1981C10.4752 10.1981 10.5011 10.2033 10.5011 10.224C10.5011 10.2447 10.5063 10.3068 10.4752 10.3198C10.4364 10.3327 10.3975 10.3146 10.3975 10.3146C10.3975 10.3146 10.3975 10.3845 10.4364 10.4544C10.4881 10.5502 10.5969 10.6589 10.7445 10.6279C10.7445 10.6279 10.8221 10.8143 10.4959 11.2285C10.4519 11.2855 10.4053 11.3631 10.3483 11.4279C10.3043 11.5314 10.2966 11.5806 10.2966 11.5806C10.2966 11.5806 10.848 11.3683 11.0059 10.8842C11.1665 10.3974 11.1975 9.91848 11.1665 9.47059C11.1613 9.34373 11.1406 9.25311 11.1095 9.18839C11.0318 9.02787 10.8144 9.05376 10.7263 9.14437C10.5995 9.27124 10.3872 9.58709 10.092 9.80457C9.79171 10.022 9.77876 10.0609 9.54834 10.1567V10.1567Z" fill="#D7BC6B"/>
<path d="M8.86479 10.8557C8.86479 10.8557 8.75606 10.9205 8.6991 11.1638C8.64214 11.4124 8.75088 11.7153 8.81302 11.8111C8.87774 11.9069 9.01755 12.1684 9.31269 12.1813C9.37742 12.1813 9.4525 12.1684 9.52499 12.1373C9.62855 12.0933 9.72952 12.0234 9.81237 11.9587C9.93923 11.8629 10.0428 11.78 10.0298 11.7722C9.99878 11.7593 9.24797 11.1379 9.24797 11.1379L8.96577 10.8221L8.86479 10.8557V10.8557Z" fill="#585136"/>
<path d="M9.574 11.8861C9.574 11.8861 9.72675 11.8732 9.81737 11.8162C9.90798 11.7592 9.28662 11.1431 9.28662 11.1431L9.33063 11.8084L9.574 11.8861V11.8861Z" fill="#453A25"/>
<path d="M8.91372 10.8091C8.91372 10.8091 8.83605 10.9567 8.83605 10.9955C8.82311 11.1224 8.86194 11.5211 8.89301 11.6479C8.92408 11.7825 9.09237 11.9871 9.30984 11.9871C9.44447 11.9871 9.63088 11.9042 9.63088 11.8835C9.63088 11.8576 9.43929 11.8317 9.38751 11.7359C9.35644 11.6842 9.3435 11.5573 9.33573 11.4279C9.33055 11.345 9.33055 11.2544 9.36162 11.2233C9.43152 11.1457 9.44447 10.923 9.44447 10.923L9.69301 10.4622H9.3668L8.97586 10.7055L8.91372 10.8091Z" fill="#84754B"/>
<path d="M8.81812 10.9514C8.81812 10.9514 9.07443 10.6122 9.30485 10.5346C9.53527 10.4569 9.63883 10.5035 9.63883 10.5035L9.5042 10.8478L9.31261 11.0601L9.32556 11.1689C9.32556 11.1689 9.29449 11.4563 9.48608 11.6556C9.67766 11.855 9.82006 11.8472 9.9029 11.8472C9.98575 11.8472 10.2239 11.7773 10.3456 11.4899C10.4544 11.2207 10.545 10.8763 10.3275 10.5294C10.1152 10.1851 9.7398 10.1721 9.66731 10.1721C9.59481 10.1747 9.02523 10.2006 8.81812 10.9514V10.9514Z" fill="#252211"/>
<path d="M15.3916 12.1036C15.2958 12.0595 15.3864 11.7903 15.4822 11.7074C15.578 11.6246 15.6997 11.5288 15.912 11.5158C15.9897 11.5107 16.0647 11.5599 16.0518 11.6116C16.0337 11.7074 15.8991 11.8421 15.7774 11.9379C15.6091 12.0699 15.5003 12.1527 15.3916 12.1036Z" fill="#F7F7E7"/>
<path d="M10.2135 10.6356C10.2835 10.6304 10.3741 10.6874 10.3922 10.7625C10.4103 10.8453 10.3482 11.011 10.2135 11.011C10.1048 11.011 10.0479 10.8764 10.0479 10.8376C10.0479 10.7987 10.066 10.7599 10.0737 10.7469C10.0789 10.7392 10.0919 10.6486 10.2135 10.6356Z" fill="#F8F6DE"/>
<path d="M9.20389 10.6951C9.20389 10.6951 9.02525 10.778 8.9424 10.9514C8.85955 11.1249 8.87768 11.2958 8.89062 11.3605C8.90357 11.4252 8.96829 11.5857 9.0123 11.6427C9.05632 11.6997 9.11586 11.7385 9.15988 11.7333C9.20389 11.7281 9.2945 11.6116 9.2945 11.5417C9.2945 11.4718 9.29968 11.1767 9.38512 11.0162C9.4602 10.8556 9.20389 10.6951 9.20389 10.6951V10.6951Z" fill="#D4C38B"/>
<path d="M9.22966 10.6823C9.19859 10.7004 9.14681 10.7263 9.15975 10.7599C9.1727 10.791 9.28143 10.8117 9.32027 10.8868C9.36428 10.9645 9.36428 11.0473 9.35134 11.0861C9.36428 11.081 9.40312 11.0602 9.44195 11.0214C9.49891 10.9567 9.56881 10.8687 9.62836 10.8687C9.6672 10.8687 9.70603 10.8868 9.74228 10.8868C9.79923 10.8868 9.85619 10.8687 9.86396 10.8091C9.8769 10.7314 9.75522 10.6615 9.68532 10.6745C9.69826 10.6227 9.71639 10.5476 9.65943 10.4958C9.60247 10.4441 9.42383 10.5347 9.38499 10.5606C9.34357 10.5865 9.22966 10.6823 9.22966 10.6823V10.6823Z" fill="#E2D59D"/>
<path d="M13.3438 16.1217L13.727 16.0078L13.8357 16.0855C13.8357 16.0855 13.9134 16.2511 14.0351 16.2719C13.9963 16.3547 13.8953 16.4246 13.9005 16.4842C13.9057 16.5437 13.9574 16.5877 13.9574 16.5877C13.9574 16.5877 13.6131 17.1573 14.2914 17.7321C14.1309 17.7968 13.9264 17.8848 13.8176 17.9366C13.8953 17.9547 14.061 17.9884 14.1309 18.0505C14.2008 18.1152 14.2008 18.1333 14.2655 18.1722C14.3302 18.211 14.3691 18.2628 14.3561 18.2861C14.3121 18.2602 14.1646 18.1825 14.1387 18.255C14.1128 18.3249 13.4992 18.299 13.4992 18.299L12.4636 18.4984C12.4636 18.4984 12.5024 18.3948 12.3937 18.299C12.2668 18.1851 12.1115 18.3042 11.9458 18.1774C11.7283 18.0117 11.7205 17.8201 11.6506 17.7476C11.7205 17.7036 11.8629 17.6388 12.2021 17.5948C12.1891 17.5689 12.1451 17.4913 12.171 17.4214C12.2021 17.3308 12.3315 17.2738 12.2927 17.1651C12.3497 17.1521 12.3756 17.1521 12.5179 16.9735C12.6526 16.7948 12.7354 16.756 12.839 16.7431C12.9425 16.7301 13.0047 16.7431 13.1963 16.5644C13.3309 16.4376 13.2869 16.3288 13.2869 16.3288C13.2869 16.3288 13.3749 16.3003 13.3438 16.1217V16.1217Z" fill="#CBAC5A"/>
<path d="M12.2125 16.1787C12.2176 16.1528 12.2383 16.1398 12.3781 16.1528C12.518 16.1657 13.4034 16.0699 13.6442 16.057C13.8875 16.0389 14.7445 16.0518 15.1613 16.1398C15.5781 16.2279 16.0002 16.3314 16.2047 16.3832C16.4092 16.4401 16.4739 16.4609 16.4662 16.4867C16.461 16.5126 16.4144 16.5385 16.3885 16.5308C16.3626 16.5256 15.6843 16.3185 15.4746 16.2745C15.2649 16.2304 14.54 16.1139 14.1438 16.1217C13.7736 16.1269 13.626 16.1165 13.3128 16.1528C12.9995 16.1916 12.4817 16.2434 12.3264 16.2227C12.1736 16.2045 12.2047 16.2045 12.2125 16.1787V16.1787Z" fill="#D6BC6F"/>
<path d="M14.2965 18.2084C14.2965 18.2084 14.8272 18.4958 15.0188 18.8479C15.1586 19.1094 14.936 19.2388 14.936 19.2388C14.936 19.2388 15.2363 19.2388 15.1975 19.4045C15.1793 19.5081 14.6797 19.7877 14.3457 19.9353C14.0065 20.0828 14.0195 20.0751 13.8538 20.101C13.6933 20.1269 13.2531 20.0492 13.1625 20.1786C13.0719 20.3055 13.1107 20.4401 13.1366 20.4608C13.1625 20.479 13.3722 20.5049 13.3722 20.5049C13.3722 20.5049 13.3282 20.6265 12.8933 20.6395C12.4583 20.6524 12.3496 20.6835 12.3237 20.7301C12.2978 20.7741 12.4065 20.7482 12.6059 20.7819C12.8052 20.8129 13.0848 20.8337 13.0848 20.8337C13.0848 20.8337 12.9942 20.9113 12.7586 20.9735C12.4894 21.0434 12.0674 21.1081 11.9405 21.1858C12.0052 21.2298 12.101 21.2945 12.145 21.2997C12.0363 21.3256 11.8835 21.3825 11.8577 21.4032C11.8965 21.4291 11.9483 21.4602 11.9483 21.4602C11.9483 21.4602 11.7308 21.7217 11.6039 21.7864C11.4771 21.8511 10.747 22.1903 10.4958 22.1256C9.86931 21.9599 9.79164 21.2738 9.63889 21.222C9.40847 21.1443 9.29973 21.2997 9.0952 21.1909C9.18581 21.1262 9.235 21.0874 9.3308 21.0434C9.22724 20.9916 8.69132 20.6524 8.69132 20.6524C8.69132 20.6524 8.62659 20.5049 8.50491 20.2951C8.40135 20.1165 8.2486 19.8783 8.13468 19.6686C7.88614 19.2078 7.87319 18.9955 7.64795 18.734C7.68678 18.6822 7.82141 18.69 7.82141 18.69L9.70879 19.3113L13.0564 19.4071L13.9263 18.1644L14.2965 18.2084V18.2084Z" fill="#DFC677"/>
<path d="M9.33838 20.1036C9.33838 20.1036 9.36427 20.1347 9.40828 20.1606C9.47301 20.2046 9.5688 20.2563 9.63352 20.334C9.65941 20.2952 9.72414 20.2253 9.83805 20.334C9.95197 20.4428 10.0944 20.3651 10.1824 20.391C10.273 20.422 10.2782 20.435 10.2782 20.435C10.2782 20.435 10.33 20.391 10.4439 20.3444C10.5138 20.3185 10.5966 20.3004 10.6872 20.2745C10.7701 20.2563 10.8607 20.2305 10.9228 20.2305C10.9798 20.2693 11.1843 20.4868 12.005 20.1657C12.7792 19.8654 12.9578 19.8317 13.0872 19.8784C13.1002 19.8473 13.1131 19.7877 13.3125 19.7955C13.3125 19.7127 13.1468 19.4305 13.1468 19.4305L12.2329 19.1172H11.7332L10.2342 19.3916L9.4031 19.8654L9.33838 20.1036Z" fill="#C4A859"/>
<path d="M8.83887 19.578C8.83887 19.578 8.85699 19.7178 9.06411 19.8654C9.26864 20.013 9.33337 20.101 9.33337 20.101C9.33337 20.101 9.3722 20.0492 9.40327 19.9975C9.43434 19.9405 9.46023 19.8758 9.51201 19.8577C9.61557 19.8136 9.85117 19.8965 9.90295 19.8835C9.94696 19.8706 9.93401 19.78 9.98062 19.78C10.0894 19.7748 10.1593 19.8499 10.1981 19.8499C10.2369 19.8499 10.3327 19.8447 10.3457 19.824C10.3586 19.8033 10.3638 19.5884 10.5114 19.4848C10.6719 19.3709 10.8686 19.4201 10.9204 19.446C10.9204 19.4848 10.9256 19.5806 11.0292 19.5858C11.1327 19.591 11.1431 19.5729 11.2337 19.6039C11.3243 19.635 11.433 19.5988 11.4822 19.7515C11.5262 19.7386 11.6298 19.7256 11.6039 19.578C11.6557 19.5392 11.6997 19.5133 11.8084 19.3606C11.8343 19.3217 11.8784 19.2777 11.912 19.2208C12.0026 19.2208 12.1114 19.2026 12.2563 19.3295C12.2123 19.3606 12.1864 19.3813 12.1735 19.4123C12.1864 19.4253 12.2382 19.4771 12.2771 19.534C12.3159 19.5858 12.3418 19.6479 12.391 19.6609C12.4997 19.692 12.6783 19.6479 12.8777 19.6609C13.0693 19.6738 13.2298 19.7437 13.2997 19.7878C13.3256 19.7748 13.3256 19.7696 13.3903 19.7826C13.455 19.7955 13.5042 19.8007 13.4343 19.7178C13.4732 19.736 13.5172 19.7748 13.556 19.736C13.5949 19.6971 13.6259 19.6402 13.7347 19.6272C13.8434 19.6143 13.8822 19.6324 13.9262 19.5185C13.9832 19.3787 13.7864 19.3787 13.7864 19.3787C13.7864 19.3787 13.8771 19.2958 13.978 19.1871C14.0997 19.0732 14.2395 18.9256 14.2732 18.7444C14.3301 18.4104 14.0039 18.3664 14.0039 18.3664L12.422 18.8531L10.4881 18.7573L8.83887 19.578V19.578Z" fill="#927D49"/>
<path d="M7.41749 15.0084C7.41749 15.0084 7.36571 15.0732 7.33464 15.2259C7.30357 15.3787 7.31652 15.3605 7.29063 15.4693C7.26474 15.578 6.94629 16.6602 7.06538 17.0253C7.18448 17.3903 7.3916 17.5249 7.52105 17.8201C7.54694 17.8848 7.57283 17.9236 7.58577 17.9806C7.62978 18.1722 7.59095 18.3198 7.64273 18.5113C7.66085 18.5761 7.70745 18.6512 7.77736 18.7288C7.93011 18.8893 8.18124 19.0421 8.28998 19.1508C8.44273 19.3113 8.66021 19.6376 8.93723 19.6686C9.0848 19.6868 9.29451 19.6246 9.46797 19.5211C9.62072 19.4253 9.71652 19.2906 9.87703 19.213C9.99095 19.156 10.1126 19.1353 10.2214 19.1094C10.4466 19.0654 10.6511 19.0576 10.7728 19.0835C10.9592 19.1224 11.3994 19.257 11.6427 19.257C11.7385 19.257 11.9638 19.244 12.2071 19.1793C12.5774 19.0706 13.0253 18.8842 13.3204 18.8013C13.4939 18.7495 13.6337 18.7366 13.7761 18.7055C14.0194 18.6486 14.224 18.5709 14.3405 18.4233C14.2628 18.3327 14.167 18.1929 13.6492 18.1981C13.0615 18.211 12.3832 18.5372 12.0492 18.589C11.7152 18.6408 11.5702 18.6848 11.1974 18.5502C10.8324 18.4156 10.8194 18.3249 10.8194 18.3249C10.8194 18.3249 10.4363 18.0557 10.2757 17.3722C10.1152 16.6861 10.2757 16.189 10.6926 15.7152C10.8013 15.5935 10.7754 15.4848 10.7754 15.4848C10.7754 15.4848 11.0498 15.1146 10.9748 14.7677C10.8919 14.4233 10.3612 14.4932 10.3612 14.4932L7.41749 15.0084V15.0084Z" fill="#6E6342"/>
<path d="M7.86022 16.1605C7.86022 16.1605 7.82139 16.2304 7.82915 16.3003C7.83433 16.3702 7.85504 16.4608 8.06475 16.6654C8.24339 16.844 8.20456 17.0434 8.20456 17.0434C8.20456 17.0434 8.29517 17.0615 8.53854 16.9476C8.73012 16.857 8.79485 17.0175 8.79485 17.0175C8.79485 17.0175 8.87252 16.9735 8.97349 16.9605C9.07705 16.9476 9.13401 16.9087 9.13401 16.9087C9.13401 16.9087 9.35925 17.1392 9.55601 17.2479C9.73465 17.3437 9.83821 17.4084 9.92624 17.3437C10.0091 17.2867 10.0091 17.1702 10.0039 17.1185C10.0039 17.1185 9.97802 17.0537 9.92624 16.9838C9.86928 16.901 9.77867 16.8052 9.77349 16.7275C9.76054 16.5489 9.90812 16.3366 9.87705 16.2848C9.84598 16.233 9.72948 16.2201 9.4421 16.3236C9.14436 16.422 7.86022 16.1605 7.86022 16.1605V16.1605Z" fill="#39331F"/>
<path d="M8.53845 17.3178C8.53845 17.3178 8.39088 17.178 8.44266 16.4997C8.52033 16.4945 8.62906 16.5178 8.62906 16.5178C8.62906 16.5178 8.70932 17.0434 8.53845 17.3178Z" fill="#292311"/>
<path d="M7.48722 14.4907C7.48722 14.4907 7.51311 14.4725 7.54418 14.4389C7.4924 14.5347 7.2568 14.9178 7.44838 15.5211C7.63997 16.1217 8.12152 16.5696 8.7144 16.5903C9.30728 16.611 9.61796 16.3211 9.97524 15.8861C10.115 15.7127 10.2756 15.4952 10.418 15.3476C10.6303 15.1172 10.796 15.0525 10.796 14.8298C10.796 14.3741 10.3299 14.1696 9.64385 13.9651C8.95777 13.7606 8.339 13.7864 8.01796 13.9263C7.70469 14.079 7.57007 14.2395 7.48722 14.4907V14.4907Z" fill="#252211"/>
<path d="M9.69067 17.5224L9.74245 17.4965C9.74245 17.4965 9.7554 17.292 9.83825 17.2972C9.92109 17.3101 9.95993 17.4188 9.95216 17.4577C9.94698 17.4965 9.92627 17.5612 9.84343 17.5535C9.73469 17.5561 9.69067 17.5224 9.69067 17.5224Z" fill="#3F3824"/>
<path d="M9.46021 16.6525C9.46021 16.6525 9.51198 16.6343 9.57412 16.6965C9.6259 16.6965 9.84855 16.6706 9.91846 16.7146C9.98836 16.7586 10.0091 16.7974 10.0091 16.7974C10.0091 16.7974 9.74758 16.8544 9.60519 16.7974C9.46021 16.7482 9.46021 16.6525 9.46021 16.6525V16.6525Z" fill="#2D2815"/>
<path d="M10.6123 16.6913C10.6123 16.6783 10.4725 16.5825 10.3249 16.5515C10.299 16.5463 10.2939 16.5644 10.2732 16.5644C10.2602 16.5592 10.255 16.5204 10.255 16.5204L10.1722 16.5644C10.1722 16.5644 10.1592 16.5825 10.2033 16.6162C10.2421 16.6472 10.3068 16.6731 10.3249 16.7249C10.3431 16.7767 10.3431 16.7948 10.3508 16.8026C10.356 16.8078 10.4466 16.8026 10.4906 16.7767C10.5346 16.7482 10.6175 16.7094 10.6123 16.6913V16.6913Z" fill="#82764F"/>
<path d="M9.30493 17.2169C9.30493 17.2169 9.33082 17.0382 9.50428 17.0304C9.68293 17.0175 9.71658 17.191 9.71658 17.191L9.61302 17.2945C9.61302 17.2919 9.53535 17.1832 9.30493 17.2169Z" fill="#2D2816"/>
<path d="M10.4312 16.4479C10.4312 16.4479 10.3354 16.5515 10.1231 16.5826C10.105 16.5567 10.0661 16.5049 10.1231 16.422C10.1801 16.3392 10.2448 16.3133 10.3095 16.3392C10.3742 16.3521 10.4182 16.3961 10.4312 16.4479Z" fill="#574F35"/>
<path d="M10.8218 16.5748C10.827 16.5489 10.8089 16.5437 10.8218 16.5308C10.8348 16.5178 10.9047 16.4919 10.9176 16.5049C10.9228 16.5101 10.9176 16.5308 10.9176 16.5567C10.9176 16.5826 10.9176 16.6085 10.9047 16.6266C10.8866 16.6525 10.8348 16.6654 10.8089 16.6576C10.783 16.6525 10.7778 16.6136 10.7778 16.6059C10.7908 16.6007 10.8218 16.5877 10.8218 16.5748ZM11.2646 16.2952C11.2646 16.2822 11.3086 16.2563 11.3345 16.2563C11.3733 16.2563 11.3733 16.2874 11.3785 16.2952C11.3914 16.3004 11.3914 16.29 11.4044 16.3133C11.4173 16.3392 11.4354 16.378 11.4225 16.4039C11.4095 16.4298 11.3578 16.4479 11.3448 16.4428C11.3267 16.4298 11.2697 16.3133 11.2646 16.2952V16.2952Z" fill="#82764F"/>
<path d="M10.3743 16.6343C10.3743 16.6343 10.4312 16.6473 10.5089 16.712C10.483 16.7301 10.4442 16.7508 10.4442 16.7508C10.4442 16.7508 10.439 16.6913 10.3743 16.6343Z" fill="#6E6342"/>
<path d="M10.2474 16.0647C10.2345 16.0518 10.2862 16.0207 10.3173 16.0259C10.3484 16.0311 10.3613 16.0518 10.395 16.057C10.4286 16.0621 10.4338 16.044 10.4468 16.0311C10.4597 16.0181 10.5037 16.0259 10.5115 16.0311C10.5167 16.0363 10.5244 16.0492 10.5244 16.0492C10.5244 16.0492 10.5244 16.0181 10.5503 15.9974C10.5762 15.9793 10.6021 15.9793 10.6202 15.9845C10.6254 16.0026 10.6513 16.0673 10.6461 16.0803C10.6409 16.0932 10.5633 16.1113 10.5503 16.0984C10.5633 16.1295 10.6202 16.1942 10.628 16.2071C10.6332 16.2201 10.571 16.2511 10.5451 16.246C10.5089 16.2434 10.2862 16.1139 10.2474 16.0647V16.0647ZM10.5866 15.635C10.5866 15.635 10.5814 15.6168 10.5607 15.6039C10.5425 15.5987 10.483 15.6039 10.483 15.635C10.483 15.666 10.5348 15.8395 10.5917 15.9301C10.6565 16.0207 10.7005 16.0958 10.7445 16.1165C10.7885 16.1346 10.8144 16.1036 10.8222 16.0906C10.8273 16.0777 10.8403 15.9819 10.8351 15.7566C10.8299 15.5314 10.8222 15.3139 10.8092 15.301C10.7963 15.288 10.7445 15.288 10.7264 15.3139C10.7082 15.3398 10.5917 15.5961 10.5866 15.635Z" fill="#585136"/>
<path d="M10.356 16.9606C10.356 16.9606 10.2654 16.9036 10.1773 16.9424C10.0945 16.9813 10.0997 17.134 10.0997 17.134C10.0997 17.134 10.1566 17.1599 10.2136 17.1211C10.2705 17.0823 10.343 17.0175 10.356 16.9606V16.9606Z" fill="#574F35"/>
<path d="M10.5269 17.165C10.5217 17.1133 10.4751 17.1133 10.4751 17.0874C10.4803 17.0615 10.5062 17.0434 10.5321 17.0434C10.5579 17.0434 10.5838 17.0744 10.6149 17.0951C10.646 17.1133 10.6926 17.1469 10.6978 17.1858C10.7029 17.2246 10.646 17.3333 10.5838 17.3333C10.5217 17.3307 10.5398 17.2168 10.5269 17.165ZM11.0266 17.0951C11.0266 17.0951 10.923 17.1262 10.9308 17.0951C10.9359 17.0641 10.9618 17.0563 10.9955 17.0563C11.0084 17.0434 11.0343 17.0252 11.0602 17.0252C11.0861 17.0252 11.099 17.0382 11.099 17.0382C11.099 17.0382 11.1689 17.0071 11.1897 17.0252C11.2078 17.0434 11.1948 17.0434 11.2078 17.0641C11.2207 17.0822 11.2389 17.121 11.2389 17.1417C11.2389 17.1625 11.1612 17.2065 11.099 17.1987C11.0266 17.1832 11.0395 17.1081 11.0266 17.0951ZM11.6298 16.9786C11.6298 16.9786 11.6609 16.9968 11.635 17.0175C11.6168 17.0356 11.5262 17.0693 11.4486 17.0744C11.3709 17.0744 11.301 17.0874 11.301 17.0615C11.301 17.0356 11.3657 16.9838 11.4045 16.9709C11.4175 16.9527 11.4434 16.9398 11.4693 16.9398C11.5003 16.9398 11.622 16.9269 11.6557 16.9217C11.6867 16.9165 11.7126 16.9346 11.6945 16.9605C11.6867 16.9786 11.6298 16.9786 11.6298 16.9786ZM11.8084 16.1786C11.8084 16.1786 11.7696 16.2615 11.7256 16.2615C11.6816 16.2563 11.6816 16.2434 11.6816 16.2304C11.6816 16.2123 11.7256 16.1657 11.7204 16.1528C11.7075 16.1528 11.6764 16.1527 11.6816 16.1217C11.6816 16.0958 11.7256 16.0647 11.7644 16.0699C11.7774 16.057 11.8214 16.0311 11.868 16.0311C11.912 16.0311 11.9508 16.044 11.9508 16.0699C11.9508 16.0958 11.899 16.1528 11.8809 16.1657C11.8602 16.1864 11.8343 16.1994 11.8084 16.1786ZM11.2181 17.7087C11.2181 17.7087 11.1664 17.7139 11.1664 17.7398C11.1664 17.7527 11.1793 17.7528 11.1974 17.745C11.2104 17.745 11.2285 17.7398 11.2285 17.7398C11.2337 17.745 11.2337 17.7709 11.2725 17.7709C11.2906 17.7709 11.3295 17.7579 11.3631 17.7398C11.3942 17.7269 11.4201 17.7139 11.4201 17.688C11.4071 17.644 11.3812 17.6233 11.3424 17.6233C11.3036 17.6233 11.2855 17.6362 11.2855 17.6362C11.2855 17.6362 11.2725 17.6104 11.2285 17.6362C11.1845 17.6621 11.1897 17.6621 11.2026 17.6751C11.2259 17.6958 11.2181 17.7087 11.2181 17.7087ZM10.9256 17.978C10.9256 17.965 10.9903 17.9392 11.0084 17.9469C11.0266 17.9521 11.0783 18.0505 11.0783 18.0608C11.0783 18.0738 11.0136 18.1049 10.9877 18.1049C10.9618 18.1049 10.9178 18.0608 10.9178 18.0531C10.9178 18.0479 10.9489 18.0401 10.9489 18.0349C10.9567 18.022 10.9256 17.9909 10.9256 17.978V17.978ZM10.7211 17.6C10.734 17.5948 10.734 17.5819 10.7521 17.5689C10.7702 17.556 10.791 17.5638 10.791 17.5638C10.791 17.5638 10.8039 17.5379 10.835 17.5327C10.866 17.5275 10.8919 17.5327 10.8867 17.5456C10.8867 17.5845 10.9126 17.6104 10.9126 17.6414C10.9126 17.6725 10.8945 17.7113 10.8298 17.7372C10.7651 17.7553 10.677 17.7553 10.6641 17.7502C10.6511 17.745 10.6382 17.6932 10.6511 17.6673C10.6615 17.6388 10.7003 17.6129 10.7211 17.6V17.6Z" fill="#82764F"/>
<path d="M10.8038 17.6182C10.8038 17.6182 10.7598 17.6441 10.7598 17.657C10.7546 17.6699 10.7546 17.6881 10.7546 17.6958C10.7546 17.7036 10.8116 17.6907 10.8194 17.6829C10.822 17.6777 10.8038 17.6311 10.8038 17.6182Z" fill="#6E6342"/>
<path d="M10.418 17.4964C10.4439 17.5016 10.4879 17.4964 10.5216 17.5094C10.5475 17.5223 10.5656 17.5482 10.5397 17.5793C10.5138 17.6103 10.4879 17.657 10.431 17.6492C10.3663 17.644 10.3041 17.6103 10.3041 17.5845C10.2989 17.5534 10.3171 17.5146 10.3352 17.4938C10.3611 17.4731 10.374 17.4861 10.418 17.4964V17.4964Z" fill="#585136"/>
<path d="M10.387 17.5223C10.387 17.5223 10.3041 17.5871 10.2834 17.6181C10.2575 17.6492 10.1307 17.8097 10.0918 17.8434C10.1048 17.8175 10.1358 17.7787 10.1358 17.7787C10.1358 17.7787 10.0582 17.8227 10.0271 17.9185C9.99602 18.0142 10.2006 18.066 10.3352 18.1049C10.4698 18.1437 10.5216 18.1566 10.5216 18.1566C10.5216 18.1566 10.4439 18.0427 10.3947 17.921C10.343 17.7994 10.3171 17.7864 10.3507 17.7295C10.3766 17.6725 10.4154 17.6337 10.4154 17.5897C10.3999 17.5482 10.387 17.5223 10.387 17.5223V17.5223Z" fill="#574F35"/>
<path d="M7.43555 17.7268C7.43555 17.7268 7.45367 17.732 7.4925 17.7268C7.53134 17.7217 7.93522 17.5741 8.35723 17.6C8.54364 17.6129 8.87503 17.6388 9.29186 17.7527C9.8226 17.8925 10.4828 18.1695 10.91 18.3275C11.0239 18.3715 11.1352 18.4492 11.2181 18.4802C11.5443 18.6071 11.5572 18.6071 11.7488 18.6407C11.9741 18.6718 12.2045 18.5967 12.4453 18.545C12.7404 18.4802 13.2453 18.4492 13.688 18.3844C13.9184 18.3534 14.11 18.2886 14.11 18.2886C14.11 18.2886 13.7579 18.6407 12.9139 18.7676C12.4919 18.8323 12.1449 18.8116 11.8834 18.7806C11.6142 18.7547 11.4355 18.7158 11.3009 18.677C11.1482 18.633 10.8349 18.5165 10.4491 18.4207C10.1799 18.3508 9.87956 18.299 9.53522 18.2343C8.68603 18.0789 7.76435 17.9003 7.43555 17.7268V17.7268Z" fill="#252211"/>
<path d="M6.99548 14.2913C6.90487 14.2084 6.80908 14.1256 6.72105 14.0427C6.63044 13.9599 6.54241 13.877 6.45179 13.7942L6.18254 13.5379C6.13853 13.4939 6.09192 13.455 6.04791 13.411C6.0039 13.3722 5.95212 13.3282 5.9081 13.2893C5.55082 12.9502 5.19095 12.611 4.83885 12.2719C5.2039 12.6058 5.56118 12.9372 5.92623 13.2764L6.05309 13.4032C6.0971 13.4473 6.1437 13.4861 6.18772 13.5301L6.45697 13.7786C6.54759 13.8615 6.63561 13.9443 6.72623 14.035C6.81684 14.1256 6.90487 14.2084 6.99548 14.2913V14.2913ZM2.25244 14.2395C2.25244 14.2395 3.55212 14.3741 4.18642 14.4647C4.77412 14.5476 6.61231 14.8298 6.61231 14.8298L2.25244 14.2395ZM2.25244 14.2395C2.61749 14.2706 2.98254 14.3094 3.34759 14.3482C3.53399 14.3663 3.71264 14.3871 3.89128 14.4052L4.16571 14.4363C4.25632 14.4492 4.34435 14.4621 4.43497 14.4751L5.52234 14.6485L6.06603 14.7392C6.24467 14.7702 6.42332 14.8039 6.60972 14.835C6.43108 14.8168 6.24467 14.7909 6.06603 14.7651L5.52234 14.6874L4.43497 14.5269C4.34435 14.5139 4.25632 14.4958 4.16571 14.4829L3.89128 14.4518C3.71264 14.4337 3.52623 14.4078 3.34759 14.3871C2.98254 14.343 2.61749 14.2964 2.25244 14.2395V14.2395ZM6.48286 15.1689C6.48286 15.1689 5.09516 15.521 4.62655 15.6557C4.16571 15.7825 2.77024 16.2071 2.77024 16.2071" fill="#CFB66C"/>
<path d="M6.48303 15.1689C6.17494 15.2596 5.86944 15.3476 5.55617 15.4304L4.62931 15.679C4.32121 15.7696 4.01571 15.8576 3.70762 15.9482L3.24678 16.0751C3.09403 16.1191 2.93869 16.1579 2.78076 16.202C2.93351 16.1502 3.08885 16.0984 3.2416 16.0544L3.70244 15.9068C4.01054 15.811 4.31604 15.7204 4.62413 15.6246C4.9374 15.5469 5.24549 15.4641 5.55876 15.389C5.85649 15.3139 6.16976 15.2388 6.48303 15.1689V15.1689ZM2.96458 17.0615C3.11733 17.0045 4.87785 16.1838 5.28691 15.9922C5.49144 15.8965 6.08691 15.6842 6.08691 15.6842" fill="#CFB66C"/>
<path d="M2.96436 17.0615C3.09898 17.0097 3.22584 16.9476 3.35529 16.8881L3.73847 16.7094L4.5074 16.3392C4.76371 16.2175 5.01225 16.0829 5.27633 15.969C5.41096 15.912 5.54558 15.8654 5.68021 15.8214L5.88474 15.7567C5.95465 15.7385 6.01937 15.7178 6.08927 15.6997C5.83296 15.8214 5.56371 15.9249 5.3074 16.044C5.05109 16.1709 4.7896 16.2745 4.52552 16.3884L3.74364 16.7327C3.48215 16.8389 3.22584 16.9528 2.96436 17.0615V17.0615ZM3.13523 17.7787C3.13523 17.7787 4.73005 16.844 5.27892 16.5437C5.5663 16.3832 6.49575 15.9224 6.49575 15.9224" fill="#CFB66C"/>
<path d="M3.13525 17.7787C3.40451 17.613 3.67894 17.4447 3.95338 17.2738L4.36244 17.0253C4.50224 16.9424 4.63687 16.8648 4.77927 16.7819C4.91907 16.6991 5.0537 16.6162 5.1961 16.5386C5.266 16.4946 5.3359 16.4609 5.40839 16.4298L5.62587 16.3211C5.91325 16.1813 6.20063 16.0389 6.50354 15.9172C6.22911 16.0907 5.9469 16.2382 5.6647 16.391C5.5249 16.4687 5.3825 16.5386 5.2427 16.6162C5.10289 16.6939 4.96826 16.7768 4.82587 16.8518C4.68606 16.9347 4.55144 17.0124 4.40904 17.0874L3.98703 17.3179C3.69966 17.4732 3.41745 17.6259 3.13525 17.7787V17.7787ZM6.48283 16.1269C6.48283 16.1269 5.49124 16.8881 5.17021 17.1314C4.84917 17.3748 3.90419 18.0583 3.90419 18.0583" fill="#CFB66C"/>
<path d="M6.48289 16.1269C6.27836 16.3003 6.06089 16.466 5.84859 16.6265L5.20911 17.1184C4.99163 17.279 4.77933 17.4447 4.56186 17.6052C4.34438 17.7657 4.12691 17.9184 3.89648 18.066C4.10102 17.8926 4.31849 17.732 4.53597 17.5741C4.75344 17.4162 4.97868 17.2608 5.18839 17.1003L5.82788 16.6084C6.04794 16.4479 6.26024 16.2822 6.48289 16.1269V16.1269ZM5.3515 17.9392C5.3515 17.9392 5.58192 17.7476 5.8693 17.4783C6.22658 17.1443 6.66412 16.7172 6.80393 16.6395" fill="#CFB66C"/>
<path d="M5.35132 17.9392C5.46523 17.8253 5.58692 17.714 5.7086 17.6052L5.89501 17.4447C5.95197 17.3929 6.01669 17.336 6.07365 17.279C6.18756 17.1651 6.29889 17.0434 6.41281 16.9269C6.46977 16.8699 6.52672 16.813 6.59145 16.7612C6.62252 16.7353 6.65617 16.7094 6.69501 16.6913C6.72608 16.6732 6.75973 16.6395 6.80375 16.6343C6.77786 16.6732 6.74679 16.6913 6.7209 16.725C6.68983 16.7508 6.66394 16.7819 6.63805 16.8078C6.58109 16.8648 6.51637 16.9165 6.45941 16.9683C6.33773 17.0719 6.21087 17.1728 6.08918 17.2816C5.9675 17.3903 5.85358 17.5068 5.7319 17.6156C5.59986 17.7269 5.47818 17.8356 5.35132 17.9392V17.9392ZM6.89954 16.9036C6.89954 16.9036 6.05553 17.7295 5.88206 17.8641Z" fill="#CFB66C"/>
<path d="M6.8998 16.9036C6.82213 16.9942 6.73928 17.077 6.65643 17.1521L6.40012 17.3955C6.31728 17.4783 6.23961 17.5612 6.15158 17.644C6.06097 17.7217 5.97812 17.7968 5.88232 17.8693L6.13087 17.6259C6.21372 17.543 6.30433 17.4731 6.39236 17.3903L6.6409 17.1469C6.72634 17.0615 6.80919 16.9786 6.8998 16.9036V16.9036ZM6.93864 17.3515C6.93864 17.3515 6.84284 17.6337 6.6642 17.9858C6.44673 18.4207 6.12051 18.9644 5.97812 19.2414" fill="#CFB66C"/>
<path d="M6.93864 17.3514C6.93864 17.4472 6.91275 17.5301 6.88168 17.6129C6.85062 17.6958 6.81696 17.7786 6.77812 17.8563C6.73929 17.934 6.69528 18.0168 6.65126 18.0919C6.60725 18.1696 6.55547 18.2446 6.51664 18.3223L6.25515 18.7832C6.16453 18.9359 6.07651 19.0912 5.98071 19.2388C6.04544 19.0731 6.13346 18.9178 6.21631 18.765C6.30693 18.6123 6.38977 18.4569 6.47262 18.299C6.51146 18.2213 6.55029 18.1385 6.58136 18.0556C6.6202 17.9728 6.65903 17.8951 6.6901 17.82C6.72893 17.7372 6.76 17.6595 6.79884 17.5845C6.84285 17.5042 6.87909 17.4265 6.93864 17.3514Z" fill="#CFB66C"/>
<path d="M7.86019 19.4744C7.86019 19.4744 7.60388 19.8136 7.62977 20.2434C7.69967 20.0181 7.7877 19.6738 7.86019 19.4744ZM8.10355 19.8136C8.10355 19.8136 8.01294 20.7353 7.93786 21.1883C8.04401 20.6654 8.06472 20.7094 8.10355 19.8136ZM9.79935 21.2427C9.79935 21.2427 9.41617 22.3689 9.40841 22.6822C9.49126 22.3612 9.65177 21.7036 9.79935 21.2427Z" fill="#DEC270"/>
<path d="M10.6951 19.4045C10.6951 19.4045 11.3164 20.4298 11.7824 21.3049C11.6556 20.8647 11.3656 20.057 10.6951 19.4045Z" fill="#CBAF59"/>
<path d="M12.365 20.9139C12.365 20.9139 12.8517 21.7527 13.2867 22.7754C13.2349 22.3353 13.0951 21.5819 12.365 20.9139Z" fill="#E3C677"/>
<path d="M17.274 22.4259C17.3775 22.3612 17.5821 22.0091 17.7607 21.9211C17.9394 21.8304 18.074 21.8123 18.2345 21.6337C18.395 21.4473 18.439 21.3334 18.7911 21.1858C19.283 20.9735 18.9439 20.6991 18.9439 20.6991C18.9439 20.6991 19.0267 20.6162 19.1174 20.5515C19.2442 20.4557 19.3918 20.3392 19.3788 20.1347C19.3607 19.7903 19.296 19.2906 19.0138 19.0007C19.2882 18.9437 19.8138 18.9049 20.14 18.822C20.518 18.7262 20.6915 18.5916 20.6915 18.5916C20.6915 18.5916 20.474 18.2214 20.8261 17.8486C21.1782 17.4783 21.4656 17.2531 21.6779 16.8363C21.4345 16.8052 21.0643 16.6758 20.1167 17.0356C20.1866 17.0667 20.2643 17.1185 20.2643 17.1185C20.2643 17.1185 19.6818 17.279 19.4695 17.4576C19.0992 17.7709 19.0526 18.0272 18.6513 18.2188C18.2474 18.4104 17.8462 18.3586 17.5122 18.5139C17.1782 18.6667 17.129 18.8013 17.0073 18.8583C17.0332 18.8893 17.0021 18.9411 17.0513 18.9851C17.0203 19.0292 16.839 19.3243 16.6552 19.3243C16.6733 19.3942 16.8287 19.446 16.8287 19.446C16.8287 19.446 16.7148 19.5288 16.4248 19.5495C16.5724 19.7023 16.7122 19.8706 17.0979 20.1139C17.0669 20.1787 16.9374 20.2745 16.9892 20.3961C17.0462 20.5178 17.1937 20.6835 17.784 20.8181C17.4837 20.8311 17.1316 20.901 16.6578 20.8363C16.184 20.7793 16.1063 20.7457 15.8138 20.8181C15.8449 20.8492 15.9277 20.8492 16.0002 20.9321C15.9225 20.9372 15.4358 20.8751 15.2701 21.0926C15.0966 21.3178 15.0216 21.6881 15.0345 21.9366C14.9439 21.9806 14.8559 22.0583 14.8999 22.2188C14.9439 22.3793 15.1743 22.4311 15.3219 22.5321C15.4695 22.6408 15.4824 22.6796 15.6222 22.6537C15.7698 22.6227 15.9873 22.4751 16.1141 22.4751C16.241 22.4751 16.3316 22.5709 16.3316 22.5709C16.3316 22.5709 16.6759 22.4052 16.7096 22.4363C16.7407 22.4673 16.7148 22.6667 16.7484 22.6978C16.7821 22.7211 17.1704 22.4906 17.274 22.4259V22.4259Z" fill="#ECD592"/>
<path opacity="0.8" d="M24.8 12.0648C23.1818 7.88614 19.1818 7.11203 19.1818 7.11203H7.76953L7.81354 11.3683H10.0867V20.8725H7.76953V25.1211H18.866C21.5404 25.1211 23.6841 22.4337 23.6841 22.4337C27.1171 17.5612 24.8 12.0648 24.8 12.0648ZM18.9255 19.5703C18.9255 19.5703 18.0556 20.8259 17.108 20.8259H15.2129L15.1689 11.3787H17.6C17.6 11.3787 18.7262 11.6143 19.5132 13.8434C19.5132 13.8434 20.5566 17.0357 18.9255 19.5703V19.5703Z" fill="white"/>
</g>
</svg>
