<svg width="32" height="32" viewBox="0 0 32 32" fill="none" xmlns="http://www.w3.org/2000/svg">
<circle cx="16" cy="16" r="15.8" fill="white" stroke="#62688F" stroke-width="0.4"/>
<mask id="mask0_4227_34070" style="mask-type:luminance" maskUnits="userSpaceOnUse" x="8" y="4" width="8" height="17">
<path d="M15.9985 4H8V20.5774H15.9985V4Z" fill="white"/>
</mask>
<g mask="url(#mask0_4227_34070)">
<path d="M8 16.2245L15.9985 20.5774V4L8 16.2245Z" fill="#8A92B2"/>
</g>
<mask id="mask1_4227_34070" style="mask-type:luminance" maskUnits="userSpaceOnUse" x="15" y="4" width="9" height="17">
<path d="M23.997 4H15.9985V20.5774H23.997V4Z" fill="white"/>
</mask>
<g mask="url(#mask1_4227_34070)">
<path d="M15.9985 4V20.5774L23.9938 16.2245L15.9985 4Z" fill="#62688F"/>
</g>
<g opacity="0.5">
<mask id="mask2_4227_34070" style="mask-type:luminance" maskUnits="userSpaceOnUse" x="8" y="12" width="16" height="9">
<path d="M23.9938 12.8737H8V20.5774H23.9938V12.8737Z" fill="white"/>
</mask>
<g mask="url(#mask2_4227_34070)">
<path d="M15.9985 12.8737L8 16.2245L15.9985 20.5774L23.9938 16.2245L15.9985 12.8737V12.8737Z" fill="#454A75"/>
</g>
</g>
<mask id="mask3_4227_34070" style="mask-type:luminance" maskUnits="userSpaceOnUse" x="8" y="17" width="8" height="11">
<path d="M15.9985 17.6204H8V28H15.9985V17.6204Z" fill="white"/>
</mask>
<g mask="url(#mask3_4227_34070)">
<path d="M8 17.6204L15.9985 28V21.9731L8 17.6204Z" fill="#8A92B2"/>
</g>
<mask id="mask4_4227_34070" style="mask-type:luminance" maskUnits="userSpaceOnUse" x="15" y="17" width="10" height="11">
<path d="M24.0002 17.6204H15.9985V28H24.0002V17.6204Z" fill="white"/>
</mask>
<g mask="url(#mask4_4227_34070)">
<path d="M15.9985 21.9733V28.0003L24.0002 17.6207L15.9985 21.9736V21.9733Z" fill="#62688F"/>
</g>
</svg>
