<svg width="32" height="32" viewBox="0 0 32 32" fill="none" xmlns="http://www.w3.org/2000/svg">
<circle cx="16" cy="16" r="16" fill="black"/>
<path d="M25.2363 20.7853L22.1552 24.0696C22.0882 24.1409 22.0071 24.1978 21.9171 24.2367C21.827 24.2755 21.7299 24.2956 21.6317 24.2955H7.02519C6.95549 24.2955 6.88732 24.2753 6.82903 24.2373C6.77075 24.1993 6.72491 24.1452 6.69713 24.0817C6.66935 24.0182 6.66084 23.948 6.67266 23.8797C6.68448 23.8114 6.71611 23.7481 6.76366 23.6975L9.84719 20.4132C9.914 20.342 9.99478 20.2853 10.0846 20.2464C10.1743 20.2075 10.2711 20.1874 10.3691 20.1872H24.9748C25.0445 20.1872 25.1127 20.2075 25.1709 20.2455C25.2292 20.2835 25.2751 20.3375 25.3028 20.4011C25.3306 20.4646 25.3391 20.5348 25.3273 20.6031C25.3155 20.6713 25.2839 20.7347 25.2363 20.7853ZM22.1552 14.1718C22.0882 14.1004 22.0071 14.0436 21.9171 14.0047C21.827 13.9658 21.7299 13.9458 21.6317 13.9458H7.02519C6.95549 13.9458 6.88732 13.9661 6.82903 14.0041C6.77075 14.042 6.72491 14.0961 6.69713 14.1596C6.66935 14.2232 6.66084 14.2934 6.67266 14.3616C6.68448 14.4299 6.71611 14.4933 6.76366 14.5439L9.84719 17.8281C9.914 17.8993 9.99478 17.9561 10.0846 17.9949C10.1743 18.0338 10.2711 18.0539 10.3691 18.0541H24.9748C25.0445 18.0541 25.1127 18.0339 25.1709 17.9959C25.2292 17.9579 25.2751 17.9038 25.3028 17.8403C25.3306 17.7768 25.3391 17.7065 25.3273 17.6383C25.3155 17.57 25.2839 17.5067 25.2363 17.456L22.1552 14.1718ZM7.02519 11.8127H21.6317C21.7299 11.8127 21.827 11.7927 21.9171 11.7538C22.0071 11.7149 22.0882 11.6581 22.1552 11.5867L25.2363 8.30248C25.2839 8.25183 25.3155 8.18849 25.3273 8.12022C25.3391 8.05196 25.3306 7.98175 25.3028 7.91822C25.2751 7.85469 25.2292 7.80062 25.1709 7.76263C25.1127 7.72465 25.0445 7.70441 24.9748 7.70441H10.3691C10.2711 7.70457 10.1743 7.72471 10.0846 7.76358C9.99478 7.80244 9.914 7.85921 9.84719 7.93036L6.76445 11.2146C6.71695 11.2652 6.68534 11.3285 6.67349 11.3967C6.66164 11.4649 6.67008 11.535 6.69776 11.5985C6.72544 11.662 6.77117 11.7161 6.82933 11.7541C6.88749 11.7922 6.95556 11.8125 7.02519 11.8127Z" fill="url(#paint0_linear_4227_34070)"/>
<defs>
<linearGradient id="paint0_linear_4227_34070" x1="8.24302" y1="24.6909" x2="23.4551" y2="7.4368" gradientUnits="userSpaceOnUse">
<stop offset="0.08" stop-color="#9945FF"/>
<stop offset="0.3" stop-color="#8752F3"/>
<stop offset="0.5" stop-color="#5497D5"/>
<stop offset="0.6" stop-color="#43B4CA"/>
<stop offset="0.72" stop-color="#28E0B9"/>
<stop offset="0.97" stop-color="#19FB9B"/>
</linearGradient>
</defs>
</svg>
