<?xml version="1.0" encoding="utf-8"?>
<!-- Generator: Adobe Illustrator 27.6.1, SVG Export Plug-In . SVG Version: 6.00 Build 0)  -->
<svg version="1.1" id="Layer_1" xmlns="http://www.w3.org/2000/svg" xmlns:xlink="http://www.w3.org/1999/xlink" x="0px" y="0px"
	 viewBox="0 0 32 32" enable-background="new 0 0 32 32" xml:space="preserve">
<circle fill="#FFFFFF" stroke="#50AF95" stroke-width="0.4" cx="16" cy="16" r="15.8"/>
<g>
	<defs>
		<rect id="SVGID_1_" x="4" y="7" width="24" height="21"/>
	</defs>
	<clipPath id="SVGID_00000120555093585255542300000013015318007125259706_">
		<use xlink:href="#SVGID_1_"  overflow="visible"/>
	</clipPath>
	<g clip-path="url(#SVGID_00000120555093585255542300000013015318007125259706_)">
		<path fill-rule="evenodd" clip-rule="evenodd" fill="#50AF95" d="M8.39,7.1l-4.38,9.25C4,16.38,4,16.42,4,16.46
			c0.01,0.04,0.03,0.07,0.05,0.1l11.82,11.39C15.91,27.98,15.95,28,16,28c0.05,0,0.09-0.02,0.12-0.05l11.82-11.39
			c0.03-0.03,0.05-0.06,0.05-0.1c0.01-0.04,0-0.08-0.02-0.11L23.61,7.1c-0.01-0.03-0.04-0.06-0.07-0.08C23.51,7.01,23.48,7,23.44,7
			H8.56c-0.03,0-0.07,0.01-0.1,0.03C8.43,7.05,8.41,7.07,8.39,7.1z"/>
		<path fill-rule="evenodd" clip-rule="evenodd" fill="#FFFFFF" d="M17.52,17.3c-0.08,0.01-0.52,0.03-1.5,0.03
			c-0.78,0-1.33-0.02-1.52-0.03c-3.01-0.13-5.25-0.66-5.25-1.29c0-0.63,2.24-1.16,5.25-1.29v2.06c0.2,0.01,0.76,0.05,1.54,0.05
			c0.93,0,1.4-0.04,1.48-0.05v-2.06c3,0.13,5.24,0.66,5.24,1.29C22.75,16.64,20.52,17.16,17.52,17.3L17.52,17.3z M17.52,14.51v-1.84
			h4.19V9.86h-11.4v2.81h4.19v1.84c-3.4,0.16-5.96,0.84-5.96,1.65c0,0.81,2.56,1.49,5.96,1.65v5.9h3.02v-5.9
			c3.39-0.16,5.95-0.83,5.95-1.65C23.47,15.34,20.91,14.66,17.52,14.51L17.52,14.51z"/>
	</g>
</g>
</svg>
